<svg width="659" height="357" viewBox="0 0 659 357" fill="none" xmlns="http://www.w3.org/2000/svg">
<path d="M437.763 40.538C437.763 41.312 437.868 42.005 438.078 42.617C438.288 43.223 438.588 43.739 438.978 44.165C439.368 44.591 439.836 44.918 440.382 45.146C440.934 45.368 441.549 45.479 442.227 45.479C442.905 45.479 443.517 45.368 444.063 45.146C444.615 44.918 445.083 44.591 445.467 44.165C445.857 43.739 446.157 43.223 446.367 42.617C446.577 42.005 446.682 41.312 446.682 40.538C446.682 39.77 446.577 39.08 446.367 38.468C446.157 37.856 445.857 37.337 445.467 36.911C445.083 36.485 444.615 36.158 444.063 35.93C443.517 35.702 442.905 35.588 442.227 35.588C441.549 35.588 440.934 35.702 440.382 35.93C439.836 36.158 439.368 36.485 438.978 36.911C438.588 37.337 438.288 37.856 438.078 38.468C437.868 39.08 437.763 39.77 437.763 40.538ZM449.265 49.628H447.681C447.447 49.628 447.24 49.595 447.06 49.529C446.88 49.469 446.712 49.355 446.556 49.187L444.378 46.811C443.718 47.027 443.001 47.135 442.227 47.135C441.273 47.135 440.4 46.973 439.608 46.649C438.822 46.325 438.147 45.872 437.583 45.29C437.025 44.702 436.59 44.006 436.278 43.202C435.966 42.392 435.81 41.504 435.81 40.538C435.81 39.578 435.966 38.693 436.278 37.883C436.59 37.073 437.025 36.377 437.583 35.795C438.147 35.207 438.822 34.751 439.608 34.427C440.4 34.097 441.273 33.932 442.227 33.932C443.187 33.932 444.06 34.097 444.846 34.427C445.632 34.751 446.307 35.207 446.871 35.795C447.435 36.377 447.87 37.073 448.176 37.883C448.488 38.693 448.644 39.578 448.644 40.538C448.644 41.138 448.581 41.711 448.455 42.257C448.335 42.797 448.161 43.301 447.933 43.769C447.705 44.237 447.423 44.663 447.087 45.047C446.757 45.431 446.382 45.767 445.962 46.055L449.265 49.628ZM458.147 37.856V47H457.094C456.854 47 456.698 46.883 456.626 46.649L456.5 45.731C456.302 45.941 456.095 46.133 455.879 46.307C455.663 46.481 455.432 46.631 455.186 46.757C454.94 46.877 454.679 46.97 454.403 47.036C454.127 47.108 453.83 47.144 453.512 47.144C453.008 47.144 452.564 47.06 452.18 46.892C451.802 46.724 451.484 46.49 451.226 46.19C450.968 45.884 450.773 45.518 450.641 45.092C450.509 44.666 450.443 44.195 450.443 43.679V37.856H452.207V43.679C452.207 44.333 452.357 44.843 452.657 45.209C452.957 45.569 453.416 45.749 454.034 45.749C454.484 45.749 454.904 45.644 455.294 45.434C455.684 45.218 456.05 44.924 456.392 44.552V37.856H458.147ZM462.432 37.856V47H460.677V37.856H462.432ZM462.765 35.03C462.765 35.192 462.732 35.348 462.666 35.498C462.6 35.642 462.51 35.771 462.396 35.885C462.288 35.993 462.159 36.08 462.009 36.146C461.859 36.206 461.703 36.236 461.541 36.236C461.379 36.236 461.226 36.206 461.082 36.146C460.938 36.08 460.809 35.993 460.695 35.885C460.587 35.771 460.5 35.642 460.434 35.498C460.374 35.348 460.344 35.192 460.344 35.03C460.344 34.862 460.374 34.706 460.434 34.562C460.5 34.412 460.587 34.283 460.695 34.175C460.809 34.061 460.938 33.974 461.082 33.914C461.226 33.848 461.379 33.815 461.541 33.815C461.703 33.815 461.859 33.848 462.009 33.914C462.159 33.974 462.288 34.061 462.396 34.175C462.51 34.283 462.6 34.412 462.666 34.562C462.732 34.706 462.765 34.862 462.765 35.03ZM471.345 38.594C471.345 38.72 471.321 38.843 471.273 38.963C471.231 39.083 471.174 39.185 471.102 39.269L466.305 45.623H471.183V47H464.244V46.262C464.244 46.178 464.265 46.079 464.307 45.965C464.349 45.845 464.409 45.734 464.487 45.632L469.311 39.233H464.523V37.856H471.345V38.594Z" fill="black"/>
<path d="M554.256 285.304C554.748 285.304 555.18 285.244 555.552 285.124C555.93 285.004 556.245 284.836 556.497 284.62C556.749 284.398 556.938 284.137 557.064 283.837C557.19 283.531 557.253 283.195 557.253 282.829C557.253 282.085 557.007 281.524 556.515 281.146C556.029 280.768 555.297 280.579 554.319 280.579H552.51V285.304H554.256ZM560.286 292H558.576C558.234 292 557.985 291.865 557.829 291.595L554.634 287.113C554.532 286.963 554.421 286.858 554.301 286.798C554.181 286.732 554.001 286.699 553.761 286.699H552.51V292H550.593V279.076H554.319C555.153 279.076 555.87 279.163 556.47 279.337C557.076 279.505 557.574 279.748 557.964 280.066C558.36 280.378 558.651 280.756 558.837 281.2C559.029 281.644 559.125 282.142 559.125 282.694C559.125 283.144 559.056 283.567 558.918 283.963C558.78 284.359 558.576 284.716 558.306 285.034C558.042 285.346 557.718 285.616 557.334 285.844C556.95 286.072 556.515 286.246 556.029 286.366C556.269 286.51 556.476 286.711 556.65 286.969L560.286 292ZM567.048 286.411C567.048 286.063 566.997 285.742 566.895 285.448C566.799 285.154 566.655 284.899 566.463 284.683C566.271 284.467 566.037 284.299 565.761 284.179C565.485 284.059 565.167 283.999 564.807 283.999C564.069 283.999 563.487 284.212 563.061 284.638C562.641 285.064 562.374 285.655 562.26 286.411H567.048ZM568.497 290.695C568.281 290.947 568.032 291.166 567.75 291.352C567.468 291.532 567.168 291.679 566.85 291.793C566.532 291.907 566.202 291.991 565.86 292.045C565.524 292.099 565.191 292.126 564.861 292.126C564.231 292.126 563.646 292.021 563.106 291.811C562.572 291.595 562.107 291.283 561.711 290.875C561.321 290.461 561.015 289.951 560.793 289.345C560.577 288.733 560.469 288.031 560.469 287.239C560.469 286.603 560.568 286.012 560.766 285.466C560.964 284.914 561.246 284.434 561.612 284.026C561.984 283.618 562.437 283.297 562.971 283.063C563.505 282.829 564.105 282.712 564.771 282.712C565.329 282.712 565.842 282.805 566.31 282.991C566.784 283.171 567.192 283.435 567.534 283.783C567.876 284.131 568.143 284.56 568.335 285.07C568.533 285.58 568.632 286.162 568.632 286.816C568.632 287.086 568.602 287.269 568.542 287.365C568.482 287.455 568.371 287.5 568.209 287.5H562.215C562.233 288.046 562.311 288.523 562.449 288.931C562.587 289.333 562.776 289.669 563.016 289.939C563.262 290.209 563.553 290.41 563.889 290.542C564.225 290.674 564.6 290.74 565.014 290.74C565.404 290.74 565.74 290.695 566.022 290.605C566.31 290.515 566.556 290.419 566.76 290.317C566.97 290.209 567.144 290.11 567.282 290.02C567.426 289.93 567.552 289.885 567.66 289.885C567.804 289.885 567.915 289.939 567.993 290.047L568.497 290.695ZM572.318 278.716V292H570.554V278.716H572.318ZM579.739 287.941C579.025 287.965 578.419 288.022 577.921 288.112C577.423 288.196 577.018 288.31 576.706 288.454C576.394 288.598 576.169 288.769 576.031 288.967C575.893 289.159 575.824 289.375 575.824 289.615C575.824 289.843 575.86 290.041 575.932 290.209C576.01 290.371 576.112 290.506 576.238 290.614C576.37 290.716 576.523 290.791 576.697 290.839C576.871 290.887 577.06 290.911 577.264 290.911C577.534 290.911 577.78 290.884 578.002 290.83C578.23 290.776 578.443 290.701 578.641 290.605C578.839 290.503 579.028 290.38 579.208 290.236C579.388 290.092 579.565 289.927 579.739 289.741V287.941ZM574.591 284.134C575.101 283.648 575.653 283.285 576.247 283.045C576.847 282.805 577.504 282.685 578.218 282.685C578.74 282.685 579.202 282.772 579.604 282.946C580.006 283.114 580.345 283.351 580.621 283.657C580.897 283.963 581.104 284.329 581.242 284.755C581.386 285.181 581.458 285.652 581.458 286.168V292H580.675C580.501 292 580.369 291.973 580.279 291.919C580.189 291.859 580.117 291.751 580.063 291.595L579.874 290.794C579.64 291.01 579.409 291.202 579.181 291.37C578.953 291.532 578.713 291.673 578.461 291.793C578.215 291.907 577.951 291.994 577.669 292.054C577.387 292.114 577.075 292.144 576.733 292.144C576.373 292.144 576.034 292.096 575.716 292C575.404 291.898 575.131 291.745 574.897 291.541C574.663 291.337 574.477 291.082 574.339 290.776C574.207 290.47 574.141 290.113 574.141 289.705C574.141 289.345 574.237 289 574.429 288.67C574.627 288.334 574.945 288.034 575.383 287.77C575.827 287.506 576.403 287.29 577.111 287.122C577.825 286.954 578.701 286.858 579.739 286.834V286.168C579.739 285.478 579.592 284.962 579.298 284.62C579.004 284.278 578.572 284.107 578.002 284.107C577.618 284.107 577.294 284.155 577.03 284.251C576.772 284.347 576.547 284.455 576.355 284.575C576.169 284.689 576.004 284.794 575.86 284.89C575.722 284.986 575.578 285.034 575.428 285.034C575.308 285.034 575.203 285.001 575.113 284.935C575.029 284.869 574.96 284.791 574.906 284.701L574.591 284.134ZM586.546 292.144C585.808 292.144 585.238 291.937 584.836 291.523C584.44 291.109 584.242 290.518 584.242 289.75V284.278H583.18C583.078 284.278 582.991 284.248 582.919 284.188C582.853 284.122 582.82 284.026 582.82 283.9V283.189L584.305 282.982L584.701 280.255C584.725 280.153 584.77 280.075 584.836 280.021C584.908 279.961 584.998 279.931 585.106 279.931H585.997V283H588.589V284.278H585.997V289.633C585.997 289.993 586.084 290.263 586.258 290.443C586.438 290.617 586.666 290.704 586.942 290.704C587.104 290.704 587.242 290.683 587.356 290.641C587.476 290.599 587.578 290.554 587.662 290.506C587.746 290.452 587.818 290.404 587.878 290.362C587.938 290.32 587.992 290.299 588.04 290.299C588.1 290.299 588.145 290.314 588.175 290.344C588.211 290.368 588.247 290.41 588.283 290.47L588.805 291.316C588.517 291.58 588.175 291.784 587.779 291.928C587.383 292.072 586.972 292.144 586.546 292.144ZM594.05 282.712C594.722 282.712 595.328 282.823 595.868 283.045C596.414 283.261 596.876 283.576 597.254 283.99C597.638 284.398 597.932 284.893 598.136 285.475C598.34 286.051 598.442 286.699 598.442 287.419C598.442 288.139 598.34 288.79 598.136 289.372C597.932 289.954 597.638 290.449 597.254 290.857C596.876 291.265 596.414 291.58 595.868 291.802C595.328 292.018 594.722 292.126 594.05 292.126C593.372 292.126 592.76 292.018 592.214 291.802C591.674 291.58 591.212 291.265 590.828 290.857C590.444 290.449 590.147 289.954 589.937 289.372C589.733 288.79 589.631 288.139 589.631 287.419C589.631 286.699 589.733 286.051 589.937 285.475C590.147 284.893 590.444 284.398 590.828 283.99C591.212 283.576 591.674 283.261 592.214 283.045C592.76 282.823 593.372 282.712 594.05 282.712ZM594.05 290.758C594.914 290.758 595.559 290.467 595.985 289.885C596.411 289.303 596.624 288.484 596.624 287.428C596.624 286.372 596.411 285.553 595.985 284.971C595.559 284.383 594.914 284.089 594.05 284.089C593.174 284.089 592.52 284.383 592.088 284.971C591.662 285.553 591.449 286.372 591.449 287.428C591.449 288.484 591.662 289.303 592.088 289.885C592.52 290.467 593.174 290.758 594.05 290.758ZM596.804 278.932L594.671 281.254C594.581 281.356 594.494 281.428 594.41 281.47C594.326 281.506 594.215 281.524 594.077 281.524H593.015L594.347 279.346C594.431 279.208 594.521 279.106 594.617 279.04C594.719 278.968 594.875 278.932 595.085 278.932H596.804ZM602.057 284.611C602.351 284.011 602.705 283.54 603.119 283.198C603.533 282.856 604.031 282.685 604.613 282.685C604.811 282.685 604.997 282.709 605.171 282.757C605.351 282.799 605.507 282.865 605.639 282.955L605.522 284.278C605.48 284.44 605.381 284.521 605.225 284.521C605.141 284.521 605.015 284.506 604.847 284.476C604.679 284.44 604.499 284.422 604.307 284.422C604.025 284.422 603.776 284.464 603.56 284.548C603.344 284.626 603.149 284.746 602.975 284.908C602.807 285.064 602.657 285.259 602.525 285.493C602.393 285.721 602.27 285.982 602.156 286.276V292H600.401V282.856H601.409C601.601 282.856 601.73 282.892 601.796 282.964C601.868 283.03 601.919 283.15 601.949 283.324L602.057 284.611ZM608.829 282.856V292H607.074V282.856H608.829ZM609.162 280.03C609.162 280.192 609.129 280.348 609.063 280.498C608.997 280.642 608.907 280.771 608.793 280.885C608.685 280.993 608.556 281.08 608.406 281.146C608.256 281.206 608.1 281.236 607.938 281.236C607.776 281.236 607.623 281.206 607.479 281.146C607.335 281.08 607.206 280.993 607.092 280.885C606.984 280.771 606.897 280.642 606.831 280.498C606.771 280.348 606.741 280.192 606.741 280.03C606.741 279.862 606.771 279.706 606.831 279.562C606.897 279.412 606.984 279.283 607.092 279.175C607.206 279.061 607.335 278.974 607.479 278.914C607.623 278.848 607.776 278.815 607.938 278.815C608.1 278.815 608.256 278.848 608.406 278.914C608.556 278.974 608.685 279.061 608.793 279.175C608.907 279.283 608.997 279.412 609.063 279.562C609.129 279.706 609.162 279.862 609.162 280.03ZM615.267 282.712C615.939 282.712 616.545 282.823 617.085 283.045C617.631 283.261 618.093 283.576 618.471 283.99C618.855 284.398 619.149 284.893 619.353 285.475C619.557 286.051 619.659 286.699 619.659 287.419C619.659 288.139 619.557 288.79 619.353 289.372C619.149 289.954 618.855 290.449 618.471 290.857C618.093 291.265 617.631 291.58 617.085 291.802C616.545 292.018 615.939 292.126 615.267 292.126C614.589 292.126 613.977 292.018 613.431 291.802C612.891 291.58 612.429 291.265 612.045 290.857C611.661 290.449 611.364 289.954 611.154 289.372C610.95 288.79 610.848 288.139 610.848 287.419C610.848 286.699 610.95 286.051 611.154 285.475C611.364 284.893 611.661 284.398 612.045 283.99C612.429 283.576 612.891 283.261 613.431 283.045C613.977 282.823 614.589 282.712 615.267 282.712ZM615.267 290.758C616.131 290.758 616.776 290.467 617.202 289.885C617.628 289.303 617.841 288.484 617.841 287.428C617.841 286.372 617.628 285.553 617.202 284.971C616.776 284.383 616.131 284.089 615.267 284.089C614.391 284.089 613.737 284.383 613.305 284.971C612.879 285.553 612.666 286.372 612.666 287.428C612.666 288.484 612.879 289.303 613.305 289.885C613.737 290.467 614.391 290.758 615.267 290.758ZM626.783 292V284.296L625.829 284.179C625.691 284.149 625.577 284.101 625.487 284.035C625.403 283.963 625.361 283.861 625.361 283.729V283H626.783V282.559C626.783 282.001 626.87 281.488 627.044 281.02C627.224 280.546 627.491 280.138 627.845 279.796C628.205 279.454 628.649 279.19 629.177 279.004C629.711 278.812 630.335 278.716 631.049 278.716C631.277 278.716 631.517 278.731 631.769 278.761C632.021 278.791 632.234 278.836 632.408 278.896L632.345 279.814C632.333 279.934 632.258 279.997 632.12 280.003C631.982 280.009 631.79 280.012 631.544 280.012C630.998 280.012 630.533 280.066 630.149 280.174C629.765 280.282 629.45 280.444 629.204 280.66C628.958 280.876 628.778 281.149 628.664 281.479C628.55 281.803 628.493 282.181 628.493 282.613V283H634.055V292H632.291V284.278H628.547V292H626.783ZM638.241 284.125C638.439 283.915 638.646 283.723 638.862 283.549C639.078 283.375 639.306 283.228 639.546 283.108C639.792 282.982 640.053 282.886 640.329 282.82C640.611 282.748 640.911 282.712 641.229 282.712C641.733 282.712 642.174 282.796 642.552 282.964C642.936 283.132 643.257 283.369 643.515 283.675C643.773 283.975 643.968 284.338 644.1 284.764C644.232 285.19 644.298 285.661 644.298 286.177V292H642.534V286.177C642.534 285.523 642.384 285.016 642.084 284.656C641.784 284.29 641.325 284.107 640.707 284.107C640.257 284.107 639.834 284.215 639.438 284.431C639.048 284.641 638.685 284.929 638.349 285.295V292H636.594V282.856H637.647C637.893 282.856 638.046 282.973 638.106 283.207L638.241 284.125ZM651.581 287.941C650.867 287.965 650.261 288.022 649.763 288.112C649.265 288.196 648.86 288.31 648.548 288.454C648.236 288.598 648.011 288.769 647.873 288.967C647.735 289.159 647.666 289.375 647.666 289.615C647.666 289.843 647.702 290.041 647.774 290.209C647.852 290.371 647.954 290.506 648.08 290.614C648.212 290.716 648.365 290.791 648.539 290.839C648.713 290.887 648.902 290.911 649.106 290.911C649.376 290.911 649.622 290.884 649.844 290.83C650.072 290.776 650.285 290.701 650.483 290.605C650.681 290.503 650.87 290.38 651.05 290.236C651.23 290.092 651.407 289.927 651.581 289.741V287.941ZM646.433 284.134C646.943 283.648 647.495 283.285 648.089 283.045C648.689 282.805 649.346 282.685 650.06 282.685C650.582 282.685 651.044 282.772 651.446 282.946C651.848 283.114 652.187 283.351 652.463 283.657C652.739 283.963 652.946 284.329 653.084 284.755C653.228 285.181 653.3 285.652 653.3 286.168V292H652.517C652.343 292 652.211 291.973 652.121 291.919C652.031 291.859 651.959 291.751 651.905 291.595L651.716 290.794C651.482 291.01 651.251 291.202 651.023 291.37C650.795 291.532 650.555 291.673 650.303 291.793C650.057 291.907 649.793 291.994 649.511 292.054C649.229 292.114 648.917 292.144 648.575 292.144C648.215 292.144 647.876 292.096 647.558 292C647.246 291.898 646.973 291.745 646.739 291.541C646.505 291.337 646.319 291.082 646.181 290.776C646.049 290.47 645.983 290.113 645.983 289.705C645.983 289.345 646.079 289 646.271 288.67C646.469 288.334 646.787 288.034 647.225 287.77C647.669 287.506 648.245 287.29 648.953 287.122C649.667 286.954 650.543 286.858 651.581 286.834V286.168C651.581 285.478 651.434 284.962 651.14 284.62C650.846 284.278 650.414 284.107 649.844 284.107C649.46 284.107 649.136 284.155 648.872 284.251C648.614 284.347 648.389 284.455 648.197 284.575C648.011 284.689 647.846 284.794 647.702 284.89C647.564 284.986 647.42 285.034 647.27 285.034C647.15 285.034 647.045 285.001 646.955 284.935C646.871 284.869 646.802 284.791 646.748 284.701L646.433 284.134ZM657.449 278.716V292H655.685V278.716H657.449Z" fill="black"/>
<path d="M233.133 142.273C232.737 140.552 231.931 138.976 230.796 137.703C229.66 136.43 228.236 135.505 226.667 135.023C220.933 133.5 198 133.5 198 133.5C198 133.5 175.067 133.5 169.333 135.168C167.764 135.65 166.34 136.575 165.204 137.848C164.069 139.121 163.263 140.697 162.867 142.418C161.817 148.745 161.304 155.164 161.333 161.594C161.296 168.072 161.809 174.54 162.867 180.915C163.303 182.582 164.128 184.098 165.26 185.317C166.393 186.537 167.796 187.418 169.333 187.875C175.067 189.543 198 189.543 198 189.543C198 189.543 220.933 189.543 226.667 187.875C228.236 187.392 229.66 186.468 230.796 185.195C231.931 183.922 232.737 182.345 233.133 180.625C234.175 174.345 234.688 167.975 234.667 161.594C234.704 155.116 234.191 148.648 233.133 142.273Z" stroke="#77E8CD" stroke-width="2" stroke-linecap="round" stroke-linejoin="round"/>
<path d="M190.5 173.448L209.667 161.594L190.5 149.74V173.448Z" stroke="#77E8CD" stroke-width="2" stroke-linecap="round" stroke-linejoin="round"/>
<path d="M183.171 203.856L179.463 213H177.879L174.171 203.856H175.62C175.758 203.856 175.872 203.889 175.962 203.955C176.052 204.021 176.112 204.105 176.142 204.207L178.329 209.823C178.407 210.057 178.473 210.291 178.527 210.525C178.587 210.753 178.641 210.981 178.689 211.209C178.737 210.981 178.791 210.753 178.851 210.525C178.911 210.297 178.983 210.063 179.067 209.823L181.281 204.207C181.317 204.105 181.38 204.021 181.47 203.955C181.56 203.889 181.668 203.856 181.794 203.856H183.171ZM186.412 203.856V213H184.648V203.856H186.412ZM188.32 199.932L186.187 202.254C186.097 202.356 186.01 202.428 185.926 202.47C185.842 202.506 185.731 202.524 185.593 202.524H184.531L185.863 200.346C185.947 200.208 186.037 200.106 186.133 200.04C186.235 199.968 186.391 199.932 186.601 199.932H188.32ZM194.839 206.07C194.551 205.692 194.239 205.428 193.903 205.278C193.573 205.128 193.201 205.053 192.787 205.053C191.983 205.053 191.359 205.344 190.915 205.926C190.477 206.502 190.258 207.345 190.258 208.455C190.258 209.037 190.306 209.535 190.402 209.949C190.504 210.357 190.648 210.693 190.834 210.957C191.026 211.215 191.26 211.407 191.536 211.533C191.812 211.653 192.124 211.713 192.472 211.713C192.982 211.713 193.423 211.599 193.795 211.371C194.167 211.143 194.515 210.822 194.839 210.408V206.07ZM196.603 199.716V213H195.541C195.295 213 195.142 212.883 195.082 212.649L194.929 211.596C194.539 212.058 194.095 212.43 193.597 212.712C193.105 212.988 192.535 213.126 191.887 213.126C191.365 213.126 190.891 213.024 190.465 212.82C190.045 212.616 189.685 212.319 189.385 211.929C189.085 211.533 188.854 211.044 188.692 210.462C188.53 209.88 188.449 209.211 188.449 208.455C188.449 207.777 188.539 207.147 188.719 206.565C188.899 205.983 189.16 205.479 189.502 205.053C189.844 204.627 190.258 204.294 190.744 204.054C191.23 203.808 191.779 203.685 192.391 203.685C192.943 203.685 193.411 203.775 193.795 203.955C194.185 204.135 194.533 204.39 194.839 204.72V199.716H196.603ZM205.108 207.411C205.108 207.063 205.057 206.742 204.955 206.448C204.859 206.154 204.715 205.899 204.523 205.683C204.331 205.467 204.097 205.299 203.821 205.179C203.545 205.059 203.227 204.999 202.867 204.999C202.129 204.999 201.547 205.212 201.121 205.638C200.701 206.064 200.434 206.655 200.32 207.411H205.108ZM206.557 211.695C206.341 211.947 206.092 212.166 205.81 212.352C205.528 212.532 205.228 212.679 204.91 212.793C204.592 212.907 204.262 212.991 203.92 213.045C203.584 213.099 203.251 213.126 202.921 213.126C202.291 213.126 201.706 213.021 201.166 212.811C200.632 212.595 200.167 212.283 199.771 211.875C199.381 211.461 199.075 210.951 198.853 210.345C198.637 209.733 198.529 209.031 198.529 208.239C198.529 207.603 198.628 207.012 198.826 206.466C199.024 205.914 199.306 205.434 199.672 205.026C200.044 204.618 200.497 204.297 201.031 204.063C201.565 203.829 202.165 203.712 202.831 203.712C203.389 203.712 203.902 203.805 204.37 203.991C204.844 204.171 205.252 204.435 205.594 204.783C205.936 205.131 206.203 205.56 206.395 206.07C206.593 206.58 206.692 207.162 206.692 207.816C206.692 208.086 206.662 208.269 206.602 208.365C206.542 208.455 206.431 208.5 206.269 208.5H200.275C200.293 209.046 200.371 209.523 200.509 209.931C200.647 210.333 200.836 210.669 201.076 210.939C201.322 211.209 201.613 211.41 201.949 211.542C202.285 211.674 202.66 211.74 203.074 211.74C203.464 211.74 203.8 211.695 204.082 211.605C204.37 211.515 204.616 211.419 204.82 211.317C205.03 211.209 205.204 211.11 205.342 211.02C205.486 210.93 205.612 210.885 205.72 210.885C205.864 210.885 205.975 210.939 206.053 211.047L206.557 211.695ZM212.476 203.712C213.148 203.712 213.754 203.823 214.294 204.045C214.84 204.261 215.302 204.576 215.68 204.99C216.064 205.398 216.358 205.893 216.562 206.475C216.766 207.051 216.868 207.699 216.868 208.419C216.868 209.139 216.766 209.79 216.562 210.372C216.358 210.954 216.064 211.449 215.68 211.857C215.302 212.265 214.84 212.58 214.294 212.802C213.754 213.018 213.148 213.126 212.476 213.126C211.798 213.126 211.186 213.018 210.64 212.802C210.1 212.58 209.638 212.265 209.254 211.857C208.87 211.449 208.573 210.954 208.363 210.372C208.159 209.79 208.057 209.139 208.057 208.419C208.057 207.699 208.159 207.051 208.363 206.475C208.573 205.893 208.87 205.398 209.254 204.99C209.638 204.576 210.1 204.261 210.64 204.045C211.186 203.823 211.798 203.712 212.476 203.712ZM212.476 211.758C213.34 211.758 213.985 211.467 214.411 210.885C214.837 210.303 215.05 209.484 215.05 208.428C215.05 207.372 214.837 206.553 214.411 205.971C213.985 205.383 213.34 205.089 212.476 205.089C211.6 205.089 210.946 205.383 210.514 205.971C210.088 206.553 209.875 207.372 209.875 208.428C209.875 209.484 210.088 210.303 210.514 210.885C210.946 211.467 211.6 211.758 212.476 211.758Z" fill="black"/>
<path d="M401.667 7.25H375C373.232 7.25 371.536 8.01384 370.286 9.37348C369.036 10.7331 368.333 12.5772 368.333 14.5V72.5C368.333 74.4228 369.036 76.2669 370.286 77.6265C371.536 78.9862 373.232 79.75 375 79.75H415C416.768 79.75 418.464 78.9862 419.714 77.6265C420.964 76.2669 421.667 74.4228 421.667 72.5V29L401.667 7.25Z" stroke="#77E8CD" stroke-width="2" stroke-linecap="round" stroke-linejoin="round"/>
<path d="M401.667 7.25V29H421.667" stroke="#77E8CD" stroke-width="2" stroke-linecap="round" stroke-linejoin="round"/>
<path d="M408.333 47.125H381.667" stroke="#77E8CD" stroke-width="2" stroke-linecap="round" stroke-linejoin="round"/>
<path d="M408.333 61.625H381.667" stroke="#77E8CD" stroke-width="2" stroke-linecap="round" stroke-linejoin="round"/>
<path d="M388.333 32.625H385H381.667" stroke="#77E8CD" stroke-width="2" stroke-linecap="round" stroke-linejoin="round"/>
<path d="M242 161C241.172 161 240.5 161.672 240.5 162.5C240.5 163.328 241.172 164 242 164V161ZM242 164H272.5V161H242V164ZM298 138.5V67.5H295V138.5H298ZM320.5 45H351V42H320.5V45ZM298 67.5C298 55.0736 308.074 45 320.5 45V42C306.417 42 295 53.4167 295 67.5H298ZM272.5 164C286.583 164 298 152.583 298 138.5H295C295 150.926 284.926 161 272.5 161V164Z" fill="#77E8CD"/>
<path d="M242 161C241.172 161 240.5 161.672 240.5 162.5C240.5 163.328 241.172 164 242 164V161ZM242 164H272.5V161H242V164ZM298 138.5V67.5H295V138.5H298ZM320.5 45H351V42H320.5V45ZM298 67.5C298 55.0736 308.074 45 320.5 45V42C306.417 42 295 53.4167 295 67.5H298ZM272.5 164C286.583 164 298 152.583 298 138.5H295C295 150.926 284.926 161 272.5 161V164Z" fill="#77E8CD"/>
<path d="M242 161C241.172 161 240.5 161.672 240.5 162.5C240.5 163.328 241.172 164 242 164V161ZM242 164H272.5V161H242V164ZM298 138.5V67.5H295V138.5H298ZM320.5 45H351V42H320.5V45ZM298 67.5C298 55.0736 308.074 45 320.5 45V42C306.417 42 295 53.4167 295 67.5H298ZM272.5 164C286.583 164 298 152.583 298 138.5H295C295 150.926 284.926 161 272.5 161V164Z" fill="#77E8CD"/>
<path d="M22.404 336.678H18.3V348H16.392V336.678H12.27V335.076H22.404V336.678ZM27.7802 342.411C27.7802 342.063 27.7292 341.742 27.6272 341.448C27.5312 341.154 27.3872 340.899 27.1952 340.683C27.0032 340.467 26.7692 340.299 26.4932 340.179C26.2172 340.059 25.8992 339.999 25.5392 339.999C24.8012 339.999 24.2192 340.212 23.7932 340.638C23.3732 341.064 23.1062 341.655 22.9922 342.411H27.7802ZM29.2292 346.695C29.0132 346.947 28.7642 347.166 28.4822 347.352C28.2002 347.532 27.9002 347.679 27.5822 347.793C27.2642 347.907 26.9342 347.991 26.5922 348.045C26.2562 348.099 25.9232 348.126 25.5932 348.126C24.9632 348.126 24.3782 348.021 23.8382 347.811C23.3042 347.595 22.8392 347.283 22.4432 346.875C22.0532 346.461 21.7472 345.951 21.5252 345.345C21.3092 344.733 21.2012 344.031 21.2012 343.239C21.2012 342.603 21.3002 342.012 21.4982 341.466C21.6962 340.914 21.9782 340.434 22.3442 340.026C22.7162 339.618 23.1692 339.297 23.7032 339.063C24.2372 338.829 24.8372 338.712 25.5032 338.712C26.0612 338.712 26.5742 338.805 27.0422 338.991C27.5162 339.171 27.9242 339.435 28.2662 339.783C28.6082 340.131 28.8752 340.56 29.0672 341.07C29.2652 341.58 29.3642 342.162 29.3642 342.816C29.3642 343.086 29.3342 343.269 29.2742 343.365C29.2142 343.455 29.1032 343.5 28.9412 343.5H22.9472C22.9652 344.046 23.0432 344.523 23.1812 344.931C23.3192 345.333 23.5082 345.669 23.7482 345.939C23.9942 346.209 24.2852 346.41 24.6212 346.542C24.9572 346.674 25.3322 346.74 25.7462 346.74C26.1362 346.74 26.4722 346.695 26.7542 346.605C27.0422 346.515 27.2882 346.419 27.4922 346.317C27.7022 346.209 27.8762 346.11 28.0142 346.02C28.1582 345.93 28.2842 345.885 28.3922 345.885C28.5362 345.885 28.6472 345.939 28.7252 346.047L29.2292 346.695ZM35.1476 338.712C35.8196 338.712 36.4256 338.823 36.9656 339.045C37.5116 339.261 37.9736 339.576 38.3516 339.99C38.7356 340.398 39.0296 340.893 39.2336 341.475C39.4376 342.051 39.5396 342.699 39.5396 343.419C39.5396 344.139 39.4376 344.79 39.2336 345.372C39.0296 345.954 38.7356 346.449 38.3516 346.857C37.9736 347.265 37.5116 347.58 36.9656 347.802C36.4256 348.018 35.8196 348.126 35.1476 348.126C34.4696 348.126 33.8576 348.018 33.3116 347.802C32.7716 347.58 32.3096 347.265 31.9256 346.857C31.5416 346.449 31.2446 345.954 31.0346 345.372C30.8306 344.79 30.7286 344.139 30.7286 343.419C30.7286 342.699 30.8306 342.051 31.0346 341.475C31.2446 340.893 31.5416 340.398 31.9256 339.99C32.3096 339.576 32.7716 339.261 33.3116 339.045C33.8576 338.823 34.4696 338.712 35.1476 338.712ZM35.1476 346.758C36.0116 346.758 36.6566 346.467 37.0826 345.885C37.5086 345.303 37.7216 344.484 37.7216 343.428C37.7216 342.372 37.5086 341.553 37.0826 340.971C36.6566 340.383 36.0116 340.089 35.1476 340.089C34.2716 340.089 33.6176 340.383 33.1856 340.971C32.7596 341.553 32.5466 342.372 32.5466 343.428C32.5466 344.484 32.7596 345.303 33.1856 345.885C33.6176 346.467 34.2716 346.758 35.1476 346.758ZM43.1546 340.611C43.4486 340.011 43.8026 339.54 44.2166 339.198C44.6306 338.856 45.1286 338.685 45.7106 338.685C45.9086 338.685 46.0946 338.709 46.2686 338.757C46.4486 338.799 46.6046 338.865 46.7366 338.955L46.6196 340.278C46.5776 340.44 46.4786 340.521 46.3226 340.521C46.2386 340.521 46.1126 340.506 45.9446 340.476C45.7766 340.44 45.5966 340.422 45.4046 340.422C45.1226 340.422 44.8736 340.464 44.6576 340.548C44.4416 340.626 44.2466 340.746 44.0726 340.908C43.9046 341.064 43.7546 341.259 43.6226 341.493C43.4906 341.721 43.3676 341.982 43.2536 342.276V348H41.4986V338.856H42.5066C42.6986 338.856 42.8276 338.892 42.8936 338.964C42.9656 339.03 43.0166 339.15 43.0466 339.324L43.1546 340.611ZM49.9264 338.856V348H48.1714V338.856H49.9264ZM50.2594 336.03C50.2594 336.192 50.2264 336.348 50.1604 336.498C50.0944 336.642 50.0044 336.771 49.8904 336.885C49.7824 336.993 49.6534 337.08 49.5034 337.146C49.3534 337.206 49.1974 337.236 49.0354 337.236C48.8734 337.236 48.7204 337.206 48.5764 337.146C48.4324 337.08 48.3034 336.993 48.1894 336.885C48.0814 336.771 47.9944 336.642 47.9284 336.498C47.8684 336.348 47.8384 336.192 47.8384 336.03C47.8384 335.862 47.8684 335.706 47.9284 335.562C47.9944 335.412 48.0814 335.283 48.1894 335.175C48.3034 335.061 48.4324 334.974 48.5764 334.914C48.7204 334.848 48.8734 334.815 49.0354 334.815C49.1974 334.815 49.3534 334.848 49.5034 334.914C49.6534 334.974 49.7824 335.061 49.8904 335.175C50.0044 335.283 50.0944 335.412 50.1604 335.562C50.2264 335.706 50.2594 335.862 50.2594 336.03ZM57.3814 343.941C56.6674 343.965 56.0614 344.022 55.5634 344.112C55.0654 344.196 54.6604 344.31 54.3484 344.454C54.0364 344.598 53.8114 344.769 53.6734 344.967C53.5354 345.159 53.4664 345.375 53.4664 345.615C53.4664 345.843 53.5024 346.041 53.5744 346.209C53.6524 346.371 53.7544 346.506 53.8804 346.614C54.0124 346.716 54.1654 346.791 54.3394 346.839C54.5134 346.887 54.7024 346.911 54.9064 346.911C55.1764 346.911 55.4224 346.884 55.6444 346.83C55.8724 346.776 56.0854 346.701 56.2834 346.605C56.4814 346.503 56.6704 346.38 56.8504 346.236C57.0304 346.092 57.2074 345.927 57.3814 345.741V343.941ZM52.2334 340.134C52.7434 339.648 53.2954 339.285 53.8894 339.045C54.4894 338.805 55.1464 338.685 55.8604 338.685C56.3824 338.685 56.8444 338.772 57.2464 338.946C57.6484 339.114 57.9874 339.351 58.2634 339.657C58.5394 339.963 58.7464 340.329 58.8844 340.755C59.0284 341.181 59.1004 341.652 59.1004 342.168V348H58.3174C58.1434 348 58.0114 347.973 57.9214 347.919C57.8314 347.859 57.7594 347.751 57.7054 347.595L57.5164 346.794C57.2824 347.01 57.0514 347.202 56.8234 347.37C56.5954 347.532 56.3554 347.673 56.1034 347.793C55.8574 347.907 55.5934 347.994 55.3114 348.054C55.0294 348.114 54.7174 348.144 54.3754 348.144C54.0154 348.144 53.6764 348.096 53.3584 348C53.0464 347.898 52.7734 347.745 52.5394 347.541C52.3054 347.337 52.1194 347.082 51.9814 346.776C51.8494 346.47 51.7834 346.113 51.7834 345.705C51.7834 345.345 51.8794 345 52.0714 344.67C52.2694 344.334 52.5874 344.034 53.0254 343.77C53.4694 343.506 54.0454 343.29 54.7534 343.122C55.4674 342.954 56.3434 342.858 57.3814 342.834V342.168C57.3814 341.478 57.2344 340.962 56.9404 340.62C56.6464 340.278 56.2144 340.107 55.6444 340.107C55.2604 340.107 54.9364 340.155 54.6724 340.251C54.4144 340.347 54.1894 340.455 53.9974 340.575C53.8114 340.689 53.6464 340.794 53.5024 340.89C53.3644 340.986 53.2204 341.034 53.0704 341.034C52.9504 341.034 52.8454 341.001 52.7554 340.935C52.6714 340.869 52.6024 340.791 52.5484 340.701L52.2334 340.134Z" fill="black"/>
<path d="M6.7243 252.825H26.8972C30.464 252.825 33.8847 254.345 36.4068 257.052C38.9289 259.759 40.3458 263.43 40.3458 267.258V317.773C40.3458 314.902 39.2831 312.149 37.3916 310.119C35.5 308.089 32.9345 306.948 30.2594 306.948H6.7243V252.825Z" stroke="#77E8CD" stroke-width="2" stroke-linecap="round" stroke-linejoin="round"/>
<path d="M73.9673 252.825H53.7944C50.2276 252.825 46.8069 254.345 44.2848 257.052C41.7627 259.759 40.3458 263.43 40.3458 267.258V317.773C40.3458 314.902 41.4085 312.149 43.3001 310.119C45.1917 308.089 47.7572 306.948 50.4323 306.948H73.9673V252.825Z" stroke="#77E8CD" stroke-width="2" stroke-linecap="round" stroke-linejoin="round"/>
<path d="M38.8458 238C38.8458 238.828 39.5174 239.5 40.3458 239.5C41.1743 239.5 41.8458 238.828 41.8458 238H38.8458ZM41.8458 238V186.5H38.8458V238H41.8458ZM64.3458 164H154V161H64.3458V164ZM41.8458 186.5C41.8458 174.074 51.9194 164 64.3458 164V161C50.2626 161 38.8458 172.417 38.8458 186.5H41.8458Z" fill="#B3B3B3"/>
<path d="M38.8458 238C38.8458 238.828 39.5174 239.5 40.3458 239.5C41.1743 239.5 41.8458 238.828 41.8458 238H38.8458ZM41.8458 238V186.5H38.8458V238H41.8458ZM64.3458 164H154V161H64.3458V164ZM41.8458 186.5C41.8458 174.074 51.9194 164 64.3458 164V161C50.2626 161 38.8458 172.417 38.8458 186.5H41.8458Z" fill="#B3B3B3"/>
<path d="M38.8458 238C38.8458 238.828 39.5174 239.5 40.3458 239.5C41.1743 239.5 41.8458 238.828 41.8458 238H38.8458ZM41.8458 238V186.5H38.8458V238H41.8458ZM64.3458 164H154V161H64.3458V164ZM41.8458 186.5C41.8458 174.074 51.9194 164 64.3458 164V161C50.2626 161 38.8458 172.417 38.8458 186.5H41.8458Z" fill="#77E8CD"/>
<path d="M38.8458 238C38.8458 238.828 39.5174 239.5 40.3458 239.5C41.1743 239.5 41.8458 238.828 41.8458 238H38.8458ZM41.8458 238V186.5H38.8458V238H41.8458ZM64.3458 164H154V161H64.3458V164ZM41.8458 186.5C41.8458 174.074 51.9194 164 64.3458 164V161C50.2626 161 38.8458 172.417 38.8458 186.5H41.8458Z" fill="#77E8CD"/>
<path d="M38.8458 238C38.8458 238.828 39.5174 239.5 40.3458 239.5C41.1743 239.5 41.8458 238.828 41.8458 238H38.8458ZM41.8458 238V186.5H38.8458V238H41.8458ZM64.3458 164H154V161H64.3458V164ZM41.8458 186.5C41.8458 174.074 51.9194 164 64.3458 164V161C50.2626 161 38.8458 172.417 38.8458 186.5H41.8458Z" fill="#77E8CD"/>
<path d="M602.109 211.927H624.947" stroke="#77E8CD" stroke-width="3" stroke-linecap="round" stroke-linejoin="round"/>
<path d="M576.053 211.927L579.316 215.19L589.103 205.402" stroke="#77E8CD" stroke-width="3" stroke-linecap="round" stroke-linejoin="round"/>
<path d="M602.109 242.378H624.947" stroke="#77E8CD" stroke-width="3" stroke-linecap="round" stroke-linejoin="round"/>
<path d="M576.053 242.378L579.316 245.64L589.103 235.853" stroke="#77E8CD" stroke-width="3" stroke-linecap="round" stroke-linejoin="round"/>
<path d="M587.45 269H613.55C635.3 269 644 260.3 644 238.55V212.45C644 190.7 635.3 182 613.55 182H587.45C565.7 182 557 190.7 557 212.45V238.55C557 260.3 565.7 269 587.45 269Z" stroke="#77E8CD" stroke-width="3" stroke-linecap="round" stroke-linejoin="round"/>
<path d="M396.5 91C396.5 90.1716 395.828 89.5 395 89.5C394.172 89.5 393.5 90.1716 393.5 91H396.5ZM600.5 178H602H600.5ZM393.5 91V134H396.5V91H393.5ZM419 159.5H580.5V156.5H419V159.5ZM580.5 159.5C590.717 159.5 599 167.783 599 178H602C602 166.126 592.374 156.5 580.5 156.5V159.5ZM393.5 134C393.5 148.083 404.917 159.5 419 159.5V156.5C406.574 156.5 396.5 146.426 396.5 134H393.5Z" fill="#77E8CD"/>
</svg>
