<svg width="748" height="116" viewBox="0 0 748 116" fill="none" xmlns="http://www.w3.org/2000/svg">
<g clip-path="url(#clip0_5_35)">
<path d="M96.4365 52.7264L62.3743 19.2536C59.6869 16.6127 55.3674 16.6504 52.7265 19.3378L19.2537 53.4C16.6127 56.0874 16.6504 60.4069 19.3379 63.0478L53.4 96.5206C56.0875 99.1616 60.407 99.1239 63.0479 96.4364L96.5207 62.3743C99.1616 59.6868 99.1239 55.3673 96.4365 52.7264Z" stroke="#53DB24" stroke-width="2" stroke-linecap="round" stroke-linejoin="round"/>
<path d="M67.9167 56.5833L48.0833 56.5833C46.5185 56.5833 45.25 57.8519 45.25 59.4167L45.25 69.3333C45.25 70.8982 46.5185 72.1667 48.0833 72.1667L67.9167 72.1667C69.4815 72.1667 70.75 70.8982 70.75 69.3333L70.75 59.4167C70.75 57.8519 69.4815 56.5833 67.9167 56.5833Z" stroke="black" stroke-width="2" stroke-linecap="round" stroke-linejoin="round"/>
<path d="M50.9166 56.5833L50.9166 50.9167C50.9149 49.1601 51.5659 47.4655 52.7432 46.1619C53.9206 44.8582 55.5404 44.0386 57.2881 43.8621C59.0358 43.6855 60.7868 44.1647 62.201 45.2065C63.6153 46.2484 64.5921 47.7785 64.9416 49.5" stroke="black" stroke-width="2" stroke-linecap="round" stroke-linejoin="round"/>
</g>
<line x1="115.774" y1="57.3871" x2="315.774" y2="57.3871" stroke="black"/>
<g clip-path="url(#clip1_5_35)">
<path d="M412.211 52.7264L378.148 19.2536C375.461 16.6127 371.142 16.6504 368.501 19.3378L335.028 53.4C332.387 56.0874 332.425 60.4069 335.112 63.0478L369.174 96.5206C371.862 99.1616 376.181 99.1239 378.822 96.4364L412.295 62.3743C414.936 59.6868 414.898 55.3673 412.211 52.7264Z" stroke="#F01010" stroke-width="2" stroke-linecap="round" stroke-linejoin="round"/>
<path d="M383.917 56.5833L364.083 56.5833C362.519 56.5833 361.25 57.8519 361.25 59.4167L361.25 69.3333C361.25 70.8982 362.519 72.1667 364.083 72.1667L383.917 72.1667C385.481 72.1667 386.75 70.8982 386.75 69.3333L386.75 59.4167C386.75 57.8519 385.481 56.5833 383.917 56.5833Z" stroke="black" stroke-width="2" stroke-linecap="round" stroke-linejoin="round"/>
<path d="M366.917 56.5833L366.917 50.9167C366.917 49.0381 367.663 47.2364 368.991 45.908C370.32 44.5796 372.121 43.8333 374 43.8333C375.879 43.8333 377.68 44.5796 379.009 45.908C380.337 47.2364 381.083 49.0381 381.083 50.9167L381.083 56.5833" stroke="black" stroke-width="2" stroke-linecap="round" stroke-linejoin="round"/>
</g>
<line x1="431.549" y1="57.3871" x2="631.549" y2="57.3871" stroke="black"/>
<g clip-path="url(#clip2_5_35)">
<path d="M727.985 52.7264L693.923 19.2536C691.235 16.6127 686.916 16.6504 684.275 19.3378L650.802 53.4C648.161 56.0874 648.199 60.4069 650.886 63.0478L684.948 96.5206C687.636 99.1616 691.955 99.1239 694.596 96.4364L728.069 62.3743C730.71 59.6868 730.672 55.3673 727.985 52.7264Z" stroke="#F01010" stroke-width="2" stroke-linecap="round" stroke-linejoin="round"/>
<path d="M698.917 56.5833L679.083 56.5833C677.519 56.5833 676.25 57.8519 676.25 59.4167L676.25 69.3333C676.25 70.8982 677.519 72.1667 679.083 72.1667L698.917 72.1667C700.481 72.1667 701.75 70.8982 701.75 69.3333L701.75 59.4167C701.75 57.8519 700.481 56.5833 698.917 56.5833Z" stroke="black" stroke-width="2" stroke-linecap="round" stroke-linejoin="round"/>
<path d="M681.917 56.5833L681.917 50.9167C681.917 49.0381 682.663 47.2364 683.991 45.908C685.32 44.5796 687.121 43.8333 689 43.8333C690.879 43.8333 692.68 44.5796 694.009 45.908C695.337 47.2364 696.083 49.0381 696.083 50.9167L696.083 56.5833" stroke="black" stroke-width="2" stroke-linecap="round" stroke-linejoin="round"/>
</g>
<defs>
<clipPath id="clip0_5_35">
<rect width="81.8679" height="81.8679" fill="white" transform="translate(57.382) rotate(44.5)"/>
</clipPath>
<clipPath id="clip1_5_35">
<rect width="81.8679" height="81.8679" fill="white" transform="translate(373.156) rotate(44.5)"/>
</clipPath>
<clipPath id="clip2_5_35">
<rect width="81.8679" height="81.8679" fill="white" transform="translate(688.93) rotate(44.5)"/>
</clipPath>
</defs>
</svg>
