<svg width="748" height="116" viewBox="0 0 748 116" fill="none" xmlns="http://www.w3.org/2000/svg">
<g clip-path="url(#clip0_5_81)">
<path d="M96.4365 52.7264L62.3743 19.2536C59.6869 16.6127 55.3674 16.6504 52.7265 19.3378L19.2537 53.4C16.6127 56.0874 16.6504 60.4069 19.3379 63.0479L53.4 96.5207C56.0875 99.1616 60.407 99.1239 63.0479 96.4365L96.5207 62.3743C99.1616 59.6869 99.1239 55.3674 96.4365 52.7264Z" stroke="#53DB24" stroke-width="2" stroke-linecap="round" stroke-linejoin="round"/>
<path d="M67.9167 56.5833L48.0833 56.5833C46.5185 56.5833 45.25 57.8518 45.25 59.4166L45.25 69.3333C45.25 70.8981 46.5185 72.1666 48.0833 72.1666L67.9167 72.1666C69.4815 72.1666 70.75 70.8981 70.75 69.3333L70.75 59.4166C70.75 57.8518 69.4815 56.5833 67.9167 56.5833Z" stroke="black" stroke-width="2" stroke-linecap="round" stroke-linejoin="round"/>
<path d="M50.9165 56.5833L50.9165 50.9166C50.9147 49.16 51.5657 47.4655 52.7431 46.1618C53.9205 44.8582 55.5403 44.0386 57.288 43.862C59.0357 43.6855 60.7866 44.1647 62.2009 45.2065C63.6152 46.2483 64.592 47.7785 64.9415 49.5" stroke="black" stroke-width="2" stroke-linecap="round" stroke-linejoin="round"/>
</g>
<line x1="115.774" y1="57.3871" x2="315.774" y2="57.3871" stroke="black"/>
<g clip-path="url(#clip1_5_81)">
<path d="M412.211 52.7264L378.149 19.2536C375.461 16.6127 371.142 16.6504 368.501 19.3378L335.028 53.4C332.387 56.0874 332.425 60.4069 335.112 63.0479L369.174 96.5207C371.862 99.1616 376.181 99.1239 378.822 96.4365L412.295 62.3743C414.936 59.6869 414.898 55.3674 412.211 52.7264Z" stroke="#53DB24" stroke-width="2" stroke-linecap="round" stroke-linejoin="round"/>
<path d="M383.917 56.5833L364.083 56.5833C362.519 56.5833 361.25 57.8518 361.25 59.4166L361.25 69.3333C361.25 70.8981 362.519 72.1666 364.083 72.1666L383.917 72.1666C385.481 72.1666 386.75 70.8981 386.75 69.3333L386.75 59.4166C386.75 57.8518 385.481 56.5833 383.917 56.5833Z" stroke="black" stroke-width="2" stroke-linecap="round" stroke-linejoin="round"/>
<path d="M366.917 56.5833L366.917 50.9166C366.915 49.16 367.566 47.4655 368.743 46.1618C369.921 44.8582 371.54 44.0386 373.288 43.862C375.036 43.6855 376.787 44.1647 378.201 45.2065C379.615 46.2483 380.592 47.7785 380.942 49.5" stroke="black" stroke-width="2" stroke-linecap="round" stroke-linejoin="round"/>
</g>
<line x1="431.548" y1="57.3871" x2="631.548" y2="57.3871" stroke="black"/>
<g clip-path="url(#clip2_5_81)">
<path d="M727.985 52.7264L693.923 19.2536C691.236 16.6127 686.916 16.6504 684.275 19.3378L650.802 53.4C648.162 56.0874 648.199 60.4069 650.887 63.0479L684.949 96.5207C687.636 99.1616 691.956 99.1239 694.597 96.4365L728.07 62.3743C730.71 59.6869 730.673 55.3674 727.985 52.7264Z" stroke="#53DB24" stroke-width="2" stroke-linecap="round" stroke-linejoin="round"/>
<path d="M698.917 56.5833L679.083 56.5833C677.519 56.5833 676.25 57.8518 676.25 59.4166L676.25 69.3333C676.25 70.8981 677.519 72.1666 679.083 72.1666L698.917 72.1666C700.481 72.1666 701.75 70.8981 701.75 69.3333L701.75 59.4166C701.75 57.8518 700.481 56.5833 698.917 56.5833Z" stroke="black" stroke-width="2" stroke-linecap="round" stroke-linejoin="round"/>
<path d="M681.917 56.5833L681.917 50.9166C681.915 49.16 682.566 47.4655 683.743 46.1618C684.921 44.8582 686.54 44.0386 688.288 43.862C690.036 43.6855 691.787 44.1647 693.201 45.2065C694.615 46.2483 695.592 47.7785 695.942 49.5" stroke="black" stroke-width="2" stroke-linecap="round" stroke-linejoin="round"/>
</g>
<defs>
<clipPath id="clip0_5_81">
<rect width="81.8679" height="81.8679" fill="white" transform="translate(57.3818) rotate(44.5)"/>
</clipPath>
<clipPath id="clip1_5_81">
<rect width="81.8679" height="81.8679" fill="white" transform="translate(373.156) rotate(44.5)"/>
</clipPath>
<clipPath id="clip2_5_81">
<rect width="81.8679" height="81.8679" fill="white" transform="translate(688.931) rotate(44.5)"/>
</clipPath>
</defs>
</svg>
