<svg width="748" height="116" viewBox="0 0 748 116" fill="none" xmlns="http://www.w3.org/2000/svg">
<g clip-path="url(#clip0_1_107)">
<path d="M96.4365 52.7264L62.3743 19.2536C59.6869 16.6127 55.3674 16.6504 52.7265 19.3378L19.2537 53.4C16.6127 56.0874 16.6504 60.4069 19.3379 63.0478L53.4 96.5206C56.0875 99.1616 60.407 99.1239 63.0479 96.4364L96.5207 62.3743C99.1616 59.6868 99.1239 55.3673 96.4365 52.7264Z" stroke="#53DB24" stroke-width="2" stroke-linecap="round" stroke-linejoin="round"/>
<path d="M67.9167 56.5833L48.0833 56.5833C46.5185 56.5833 45.25 57.8519 45.25 59.4167L45.25 69.3333C45.25 70.8982 46.5185 72.1667 48.0833 72.1667L67.9167 72.1667C69.4815 72.1667 70.75 70.8982 70.75 69.3333L70.75 59.4167C70.75 57.8519 69.4815 56.5833 67.9167 56.5833Z" stroke="black" stroke-width="2" stroke-linecap="round" stroke-linejoin="round"/>
<path d="M50.9168 56.5833L50.9168 50.9167C50.915 49.1601 51.566 47.4655 52.7434 46.1619C53.9207 44.8582 55.5405 44.0386 57.2882 43.8621C59.0359 43.6855 60.7869 44.1647 62.2012 45.2065C63.6155 46.2484 64.5922 47.7785 64.9418 49.5" stroke="black" stroke-width="2" stroke-linecap="round" stroke-linejoin="round"/>
</g>
<line x1="115.774" y1="57.3871" x2="315.774" y2="57.3871" stroke="black"/>
<g clip-path="url(#clip1_1_107)">
<path d="M412.211 52.7264L378.148 19.2536C375.461 16.6127 371.142 16.6504 368.501 19.3378L335.028 53.4C332.387 56.0874 332.425 60.4069 335.112 63.0478L369.174 96.5206C371.862 99.1616 376.181 99.1239 378.822 96.4364L412.295 62.3743C414.936 59.6868 414.898 55.3673 412.211 52.7264Z" stroke="#53DB24" stroke-width="2" stroke-linecap="round" stroke-linejoin="round"/>
<path d="M383.691 56.5833L363.858 56.5833C362.293 56.5833 361.024 57.8519 361.024 59.4167L361.024 69.3333C361.024 70.8982 362.293 72.1667 363.858 72.1667L383.691 72.1667C385.256 72.1667 386.524 70.8982 386.524 69.3333L386.524 59.4167C386.524 57.8519 385.256 56.5833 383.691 56.5833Z" stroke="black" stroke-width="2" stroke-linecap="round" stroke-linejoin="round"/>
<path d="M366.691 56.5833L366.691 50.9167C366.689 49.1601 367.34 47.4655 368.518 46.1619C369.695 44.8582 371.315 44.0386 373.062 43.8621C374.81 43.6855 376.561 44.1647 377.975 45.2065C379.39 46.2484 380.366 47.7785 380.716 49.5" stroke="black" stroke-width="2" stroke-linecap="round" stroke-linejoin="round"/>
</g>
<line x1="431.549" y1="57.3871" x2="631.549" y2="57.3871" stroke="black"/>
<g clip-path="url(#clip2_1_107)">
<path d="M727.985 52.7264L693.923 19.2536C691.236 16.6127 686.916 16.6504 684.275 19.3378L650.802 53.4C648.162 56.0874 648.199 60.4069 650.887 63.0478L684.949 96.5206C687.636 99.1616 691.956 99.1239 694.597 96.4364L728.07 62.3743C730.71 59.6868 730.673 55.3673 727.985 52.7264Z" stroke="#F01010" stroke-width="2" stroke-linecap="round" stroke-linejoin="round"/>
<path d="M698.917 56.5833L679.083 56.5833C677.519 56.5833 676.25 57.8519 676.25 59.4167L676.25 69.3333C676.25 70.8982 677.519 72.1667 679.083 72.1667L698.917 72.1667C700.481 72.1667 701.75 70.8982 701.75 69.3333L701.75 59.4167C701.75 57.8519 700.481 56.5833 698.917 56.5833Z" stroke="black" stroke-width="2" stroke-linecap="round" stroke-linejoin="round"/>
<path d="M681.917 56.5833L681.917 50.9167C681.917 49.0381 682.663 47.2364 683.991 45.908C685.32 44.5796 687.121 43.8333 689 43.8333C690.878 43.8333 692.68 44.5796 694.009 45.908C695.337 47.2364 696.083 49.0381 696.083 50.9167L696.083 56.5833" stroke="black" stroke-width="2" stroke-linecap="round" stroke-linejoin="round"/>
</g>
<defs>
<clipPath id="clip0_1_107">
<rect width="81.8679" height="81.8679" fill="white" transform="translate(57.3821) rotate(44.5)"/>
</clipPath>
<clipPath id="clip1_1_107">
<rect width="81.8679" height="81.8679" fill="white" transform="translate(373.156) rotate(44.5)"/>
</clipPath>
<clipPath id="clip2_1_107">
<rect width="81.8679" height="81.8679" fill="white" transform="translate(688.931) rotate(44.5)"/>
</clipPath>
</defs>
</svg>
