<?xml version="1.0" encoding="UTF-8"?>
<!DOCTYPE svg PUBLIC "-//W3C//DTD SVG 1.1//EN" "http://www.w3.org/Graphics/SVG/1.1/DTD/svg11.dtd">
<svg xmlns="http://www.w3.org/2000/svg" version="1.1" width="775px" height="288px" style="shape-rendering:geometricPrecision; text-rendering:geometricPrecision; image-rendering:optimizeQuality; fill-rule:evenodd; clip-rule:evenodd" xmlns:xlink="http://www.w3.org/1999/xlink">
<g><path style="opacity:1" fill="#637ee4" d="M 203.5,61.5 C 203.5,62.8333 202.833,63.5 201.5,63.5C 149.832,63.3333 98.1656,63.5 46.5,64C 45.9558,64.7172 45.2891,65.2172 44.5,65.5C 43.6618,65.1583 43.3284,64.4916 43.5,63.5C 44.0577,62.2101 45.0577,61.3768 46.5,61C 98.904,60.1716 151.237,60.3383 203.5,61.5 Z"/></g>
<g><path style="opacity:1" fill="#6480d2" d="M 203.5,61.5 C 205.727,62.4006 206.727,64.0672 206.5,66.5C 205.833,117.5 205.167,168.5 204.5,219.5C 204.483,169.227 204.483,119.06 204.5,69C 204.105,66.7516 203.105,64.9183 201.5,63.5C 202.833,63.5 203.5,62.8333 203.5,61.5 Z"/></g>
<g><path style="opacity:1" fill="#2792c2" d="M 130.5,84.5 C 129.298,83.5946 127.964,83.5946 126.5,84.5C 127.476,83.1851 128.476,81.8518 129.5,80.5C 129.145,79.4777 128.478,78.811 127.5,78.5C 127.158,77.6618 126.492,77.3284 125.5,77.5C 127.879,74.8598 130.379,74.8598 133,77.5C 133.667,78.8333 133.667,80.1667 133,81.5C 131.955,82.3734 131.122,83.3734 130.5,84.5 Z"/></g>
<g><path style="opacity:1" fill="#336192" d="M 125.5,77.5 C 126.492,77.3284 127.158,77.6618 127.5,78.5C 123.285,82.9421 121.285,88.2754 121.5,94.5C 120.691,92.7078 120.191,90.7078 120,88.5C 119.502,91.4816 119.335,94.4816 119.5,97.5C 118.833,95.5 118.167,93.5 117.5,91.5C 117.5,90.8333 117.5,90.1667 117.5,89.5C 118.74,86.976 119.907,84.3093 121,81.5C 121.876,79.3645 123.376,78.0312 125.5,77.5 Z"/></g>
<g><path style="opacity:1" fill="#2d5990" d="M 111.5,80.5 C 110.5,80.8333 109.833,81.5 109.5,82.5C 107.847,81.4709 106.514,81.9709 105.5,84C 106.315,85.9802 107.648,87.4802 109.5,88.5C 109.631,89.2389 109.464,89.9056 109,90.5C 108.329,89.7476 107.496,89.4142 106.5,89.5C 101,85.1417 101.5,81.475 108,78.5C 109.459,78.8082 110.626,79.4749 111.5,80.5 Z"/></g>
<g><path style="opacity:1" fill="#2688b8" d="M 111.5,80.5 C 114.737,82.6304 116.737,85.6304 117.5,89.5C 117.5,90.1667 117.5,90.8333 117.5,91.5C 116.626,92.5251 115.459,93.1918 114,93.5C 110.952,92.9994 108.452,91.6661 106.5,89.5C 107.496,89.4142 108.329,89.7476 109,90.5C 109.464,89.9056 109.631,89.2389 109.5,88.5C 111.03,89.0668 112.53,89.7334 114,90.5C 113.625,87.2699 112.125,84.6032 109.5,82.5C 109.833,81.5 110.5,80.8333 111.5,80.5 Z"/></g>
<g><path style="opacity:1" fill="#3172a3" d="M 130.5,84.5 C 127.327,88.3059 125.66,92.6392 125.5,97.5C 124.652,96.375 123.652,96.375 122.5,97.5C 122.25,92.5879 123.584,88.2546 126.5,84.5C 127.964,83.5946 129.298,83.5946 130.5,84.5 Z"/></g>
<g><path style="opacity:1" fill="#306a9f" d="M 105.5,96.5 C 110.081,95.9231 114.248,96.9231 118,99.5C 118.383,98.944 118.883,98.6107 119.5,98.5C 120.5,98.8333 121.167,99.5 121.5,100.5C 121.918,101.222 122.584,101.722 123.5,102C 121.455,102.49 119.455,102.323 117.5,101.5C 114.306,100.242 110.973,99.5758 107.5,99.5C 108.609,98.71 109.942,98.21 111.5,98C 109.292,97.8091 107.292,97.3091 105.5,96.5 Z"/></g>
<g><path style="opacity:1" fill="#265599" d="M 121.5,94.5 C 121.263,95.791 121.596,96.791 122.5,97.5C 123.652,96.375 124.652,96.375 125.5,97.5C 125.5,98.1667 125.833,98.5 126.5,98.5C 125.07,99.5375 123.403,100.204 121.5,100.5C 121.167,99.5 120.5,98.8333 119.5,98.5C 119.5,98.1667 119.5,97.8333 119.5,97.5C 119.335,94.4816 119.502,91.4816 120,88.5C 120.191,90.7078 120.691,92.7078 121.5,94.5 Z"/></g>
<g><path style="opacity:0.996" fill="#2a81b3" d="M 141.5,97.5 C 141.5,98.8333 140.833,99.5 139.5,99.5C 137.143,99.3367 134.81,99.5034 132.5,100C 128.278,103.111 123.611,104.111 118.5,103C 117.944,102.617 117.611,102.117 117.5,101.5C 119.455,102.323 121.455,102.49 123.5,102C 122.584,101.722 121.918,101.222 121.5,100.5C 123.403,100.204 125.07,99.5375 126.5,98.5C 131.416,96.4711 136.416,96.1377 141.5,97.5 Z"/></g>
<g><path style="opacity:1" fill="#2c438d" d="M 235.5,107.5 C 254.008,107.17 272.341,107.503 290.5,108.5C 290.631,109.239 290.464,109.906 290,110.5C 280.861,109.298 271.694,109.298 262.5,110.5C 260.253,111.245 258.419,112.578 257,114.5C 256.235,114.43 255.735,114.097 255.5,113.5C 255.5,112.167 255.5,110.833 255.5,109.5C 248.661,109.111 241.994,108.444 235.5,107.5 Z"/></g>
<g><path style="opacity:1" fill="#293f91" d="M 290.5,108.5 C 291.488,113.64 291.821,118.974 291.5,124.5C 283.791,124.731 276.124,124.398 268.5,123.5C 266.052,123.99 264.385,123.157 263.5,121C 265.032,118.883 267.032,117.216 269.5,116C 264.48,112.737 260.98,114.237 259,120.5C 258.503,122.81 258.337,125.143 258.5,127.5C 259.5,127.5 260.5,127.5 261.5,127.5C 261.536,144.709 261.536,161.709 261.5,178.5C 258.552,178.777 255.719,178.444 253,177.5C 253.156,159.804 252.322,142.471 250.5,125.5C 244.021,124.509 237.354,124.176 230.5,124.5C 230.5,122.833 230.5,121.167 230.5,119.5C 237.046,121.906 243.713,122.072 250.5,120C 251.779,118.354 253.445,117.187 255.5,116.5C 251.878,115.341 248.211,115.175 244.5,116C 243.663,117.011 243.33,118.178 243.5,119.5C 240.813,119.664 238.146,119.497 235.5,119C 234.167,118.333 234.167,117.667 235.5,117C 234.109,115.98 232.609,115.147 231,114.5C 230.044,110.075 231.877,108.408 236.5,109.5C 236.5,110.833 236.5,112.167 236.5,113.5C 238.592,113.561 240.092,114.561 241,116.5C 241.833,115.667 242.667,114.833 243.5,114C 247.486,113.501 251.486,113.334 255.5,113.5C 255.735,114.097 256.235,114.43 257,114.5C 258.419,112.578 260.253,111.245 262.5,110.5C 271.694,109.298 280.861,109.298 290,110.5C 290.464,109.906 290.631,109.239 290.5,108.5 Z"/></g>
<g><path style="opacity:1" fill="#314982" d="M 105.5,96.5 C 107.292,97.3091 109.292,97.8091 111.5,98C 109.942,98.21 108.609,98.71 107.5,99.5C 99.6687,100.498 94.8354,104.832 93,112.5C 91.1478,126.433 94.6478,138.767 103.5,149.5C 103.672,150.492 103.338,151.158 102.5,151.5C 95.6218,145.067 91.4551,137.067 90,127.5C 86.57,112.517 91.7366,102.184 105.5,96.5 Z"/></g>
<g><path style="opacity:1" fill="#2b3c89" d="M 231.5,107.5 C 232.833,107.5 234.167,107.5 235.5,107.5C 241.994,108.444 248.661,109.111 255.5,109.5C 255.5,110.833 255.5,112.167 255.5,113.5C 251.486,113.334 247.486,113.501 243.5,114C 242.667,114.833 241.833,115.667 241,116.5C 240.092,114.561 238.592,113.561 236.5,113.5C 236.5,112.167 236.5,110.833 236.5,109.5C 231.877,108.408 230.044,110.075 231,114.5C 232.609,115.147 234.109,115.98 235.5,117C 234.167,117.667 234.167,118.333 235.5,119C 238.146,119.497 240.813,119.664 243.5,119.5C 243.33,118.178 243.663,117.011 244.5,116C 248.211,115.175 251.878,115.341 255.5,116.5C 253.445,117.187 251.779,118.354 250.5,120C 243.713,122.072 237.046,121.906 230.5,119.5C 230.5,121.167 230.5,122.833 230.5,124.5C 229.836,122.022 229.503,119.355 229.5,116.5C 229.604,113.231 230.27,110.231 231.5,107.5 Z"/></g>
<g><path style="opacity:1" fill="#284090" d="M 268.5,123.5 C 266.883,126.076 267.217,127.076 269.5,126.5C 268.313,143.774 268.313,160.941 269.5,178C 268.683,180.372 267.35,180.872 265.5,179.5C 264.432,178.566 263.099,178.232 261.5,178.5C 261.536,161.709 261.536,144.709 261.5,127.5C 260.5,127.5 259.5,127.5 258.5,127.5C 258.337,125.143 258.503,122.81 259,120.5C 260.98,114.237 264.48,112.737 269.5,116C 267.032,117.216 265.032,118.883 263.5,121C 264.385,123.157 266.052,123.99 268.5,123.5 Z"/></g>
<g><path style="opacity:1" fill="#2e427a" d="M 231.5,107.5 C 230.27,110.231 229.604,113.231 229.5,116.5C 229.503,119.355 229.836,122.022 230.5,124.5C 237.354,124.176 244.021,124.509 250.5,125.5C 243.167,125.5 235.833,125.5 228.5,125.5C 228.5,119.5 228.5,113.5 228.5,107.5C 229.5,107.5 230.5,107.5 231.5,107.5 Z"/></g>
<g><path style="opacity:1" fill="#294583" d="M 268.5,123.5 C 276.124,124.398 283.791,124.731 291.5,124.5C 284.167,125.167 276.833,125.833 269.5,126.5C 267.217,127.076 266.883,126.076 268.5,123.5 Z"/></g>
<g><path style="opacity:1" fill="#294f8f" d="M 342.5,132.5 C 338.821,131.163 335.155,129.83 331.5,128.5C 327.154,128.334 322.821,128.501 318.5,129C 318.833,129.333 319.167,129.667 319.5,130C 316.793,130.395 314.127,130.895 311.5,131.5C 312.058,130.21 313.058,129.377 314.5,129C 324.656,124.845 333.989,126.012 342.5,132.5 Z"/></g>
<g><path style="opacity:1" fill="#295f9a" d="M 399.5,128.5 C 392.8,128.17 386.134,128.503 379.5,129.5C 376.284,130.4 373.618,132.067 371.5,134.5C 369.5,136.167 367.5,137.833 365.5,139.5C 372.759,128.236 383.092,124.07 396.5,127C 397.737,127.232 398.737,127.732 399.5,128.5 Z"/></g>
<g><path style="opacity:1" fill="#1c63af" d="M 401.5,176.5 C 401.183,173.428 401.516,170.428 402.5,167.5C 403.524,166.147 404.857,165.48 406.5,165.5C 407.765,161.284 406.765,157.618 403.5,154.5C 402.732,150.025 402.066,145.525 401.5,141C 401.833,139.167 402.167,137.333 402.5,135.5C 404.167,134.167 405.833,132.833 407.5,131.5C 406.359,130.575 406.359,129.741 407.5,129C 409.81,128.503 412.143,128.337 414.5,128.5C 413.819,145.123 414.153,161.79 415.5,178.5C 410.57,178.966 405.903,178.299 401.5,176.5 Z"/></g>
<g><path style="opacity:1" fill="#1f6dac" d="M 469.5,132.5 C 467.321,131.941 465.154,131.274 463,130.5C 460.424,132.879 458.257,132.712 456.5,130C 457.5,129.667 458.5,129.333 459.5,129C 457.231,128.242 455.064,128.409 453,129.5C 451.687,128.427 450.187,127.76 448.5,127.5C 445.521,128.328 442.521,128.995 439.5,129.5C 440.842,128.207 442.509,127.374 444.5,127C 449.167,126.333 453.833,126.333 458.5,127C 462.776,127.805 466.443,129.638 469.5,132.5 Z"/></g>
<g><path style="opacity:1" fill="#186eba" d="M 469.5,132.5 C 470.5,132.833 471.167,133.5 471.5,134.5C 470.192,135.232 468.858,136.066 467.5,137C 470.364,138.413 473.03,139.913 475.5,141.5C 475.286,143.144 475.62,144.644 476.5,146C 476,146.167 475.5,146.333 475,146.5C 473.832,145.491 472.665,144.491 471.5,143.5C 470.663,145.505 469.163,146.505 467,146.5C 464.338,144.351 461.505,142.351 458.5,140.5C 457.893,140.624 457.56,140.957 457.5,141.5C 456.833,141.5 456.5,141.167 456.5,140.5C 455.688,139.007 454.355,138.34 452.5,138.5C 448.993,139.826 445.66,139.66 442.5,138C 444.037,136.89 444.703,135.39 444.5,133.5C 441.719,134.823 439.053,134.656 436.5,133C 437.71,131.961 438.71,130.794 439.5,129.5C 442.521,128.995 445.521,128.328 448.5,127.5C 450.187,127.76 451.687,128.427 453,129.5C 455.064,128.409 457.231,128.242 459.5,129C 458.5,129.333 457.5,129.667 456.5,130C 458.257,132.712 460.424,132.879 463,130.5C 465.154,131.274 467.321,131.941 469.5,132.5 Z"/></g>
<g><path style="opacity:1" fill="#2363a5" d="M 396.5,178.5 C 396.369,177.761 396.536,177.094 397,176.5C 398.299,176.966 399.799,176.966 401.5,176.5C 405.903,178.299 410.57,178.966 415.5,178.5C 414.153,161.79 413.819,145.123 414.5,128.5C 412.143,128.337 409.81,128.503 407.5,129C 406.359,129.741 406.359,130.575 407.5,131.5C 405.833,132.833 404.167,134.167 402.5,135.5C 402.167,137.333 401.833,139.167 401.5,141C 402.066,145.525 402.732,150.025 403.5,154.5C 403.66,156.199 403.494,157.866 403,159.5C 400.889,163.141 397.722,165.141 393.5,165.5C 400.601,161.611 403.101,155.611 401,147.5C 397.352,141.092 391.852,138.759 384.5,140.5C 387.836,137.089 391.502,136.755 395.5,139.5C 396.647,139.182 397.481,138.516 398,137.5C 398.414,137.957 398.914,138.291 399.5,138.5C 400.59,135.572 400.59,132.239 399.5,128.5C 404.945,126.655 410.612,125.988 416.5,126.5C 416.667,144.503 416.5,162.503 416,180.5C 412.198,179.194 408.365,179.194 404.5,180.5C 403.167,179.5 401.833,178.5 400.5,177.5C 399.264,178.246 397.93,178.579 396.5,178.5 Z"/></g>
<g><path style="opacity:1" fill="#08a8e7" d="M 717.5,145.5 C 717.724,149.179 718.058,152.846 718.5,156.5C 713.5,156.5 708.5,156.5 703.5,156.5C 703.443,155.391 703.11,154.391 702.5,153.5C 703.117,153.389 703.617,153.056 704,152.5C 705.491,145.483 702.658,141.483 695.5,140.5C 689.474,139.611 684.808,141.611 681.5,146.5C 681.11,144.792 681.11,143.126 681.5,141.5C 678.545,139.232 675.711,137.565 673,136.5C 672.517,137.448 672.351,138.448 672.5,139.5C 670.486,139.392 668.82,140.058 667.5,141.5C 672.631,131.838 680.797,126.838 692,126.5C 704.848,127.159 713.348,133.492 717.5,145.5 Z"/></g>
<g><path style="opacity:1" fill="#1181c9" d="M 540.5,179.5 C 539.652,180.625 538.652,180.625 537.5,179.5C 534.713,178.523 531.713,178.19 528.5,178.5C 528.334,168.161 528.5,157.828 529,147.5C 530.532,144.088 530.365,140.921 528.5,138C 522.77,137.022 522.27,135.188 527,132.5C 528.567,133.856 530.4,134.523 532.5,134.5C 532.714,136.144 532.38,137.644 531.5,139C 532.448,139.483 533.448,139.649 534.5,139.5C 534.457,143.893 534.957,144.226 536,140.5C 536.692,141.025 537.192,141.692 537.5,142.5C 535.324,146.271 534.991,150.271 536.5,154.5C 537.324,151.215 537.824,147.882 538,144.5C 539.044,145.623 539.71,146.956 540,148.5C 540.5,158.828 540.666,169.161 540.5,179.5 Z"/></g>
<g><path style="opacity:1" fill="#1698d1" d="M 656.5,138.5 C 654.156,136.932 652.156,137.265 650.5,139.5C 649.571,138.311 649.238,136.978 649.5,135.5C 650.5,135.5 651.5,135.5 652.5,135.5C 652.67,134.178 652.337,133.011 651.5,132C 648.791,131.228 646.291,130.061 644,128.5C 643.167,128.667 642.333,128.833 641.5,129C 643.62,132.133 643.62,135.133 641.5,138C 643.167,141.334 644.334,144.834 645,148.5C 645.5,158.494 645.666,168.494 645.5,178.5C 650.14,179.025 654.473,178.358 658.5,176.5C 658.5,177.833 658.5,179.167 658.5,180.5C 653.57,180.803 648.737,180.469 644,179.5C 643.938,167.43 643.272,155.43 642,143.5C 638.659,140.351 634.825,139.684 630.5,141.5C 630.5,140.5 630.5,139.5 630.5,138.5C 639.001,139.12 642.001,135.453 639.5,127.5C 632.889,127.178 627.222,129.178 622.5,133.5C 624.102,130.177 626.769,128.011 630.5,127C 638.445,125.417 645.778,126.75 652.5,131C 654.494,133.158 655.828,135.658 656.5,138.5 Z"/></g>
<g><path style="opacity:1" fill="#089cdf" d="M 656.5,138.5 C 657.989,143.441 658.989,148.608 659.5,154C 658.55,161.456 658.216,168.956 658.5,176.5C 654.473,178.358 650.14,179.025 645.5,178.5C 645.666,168.494 645.5,158.494 645,148.5C 644.334,144.834 643.167,141.334 641.5,138C 643.62,135.133 643.62,132.133 641.5,129C 642.333,128.833 643.167,128.667 644,128.5C 646.291,130.061 648.791,131.228 651.5,132C 652.337,133.011 652.67,134.178 652.5,135.5C 651.5,135.5 650.5,135.5 649.5,135.5C 649.238,136.978 649.571,138.311 650.5,139.5C 652.156,137.265 654.156,136.932 656.5,138.5 Z"/></g>
<g><path style="opacity:1" fill="#2071ae" d="M 471.5,134.5 C 475.909,138.156 478.242,142.656 478.5,148C 473.467,148.829 468.467,148.662 463.5,147.5C 462.478,144.478 460.478,142.478 457.5,141.5C 457.56,140.957 457.893,140.624 458.5,140.5C 461.505,142.351 464.338,144.351 467,146.5C 469.163,146.505 470.663,145.505 471.5,143.5C 472.665,144.491 473.832,145.491 475,146.5C 475.5,146.333 476,146.167 476.5,146C 475.62,144.644 475.286,143.144 475.5,141.5C 473.03,139.913 470.364,138.413 467.5,137C 468.858,136.066 470.192,135.232 471.5,134.5 Z"/></g>
<g><path style="opacity:1" fill="#2b5490" d="M 322.5,140.5 C 322.5,140.167 322.5,139.833 322.5,139.5C 327.947,138.826 332.947,139.992 337.5,143C 338.815,145.289 338.815,146.789 337.5,147.5C 334.262,141.717 329.262,139.384 322.5,140.5 Z"/></g>
<g><path style="opacity:1" fill="#1e5da8" d="M 399.5,128.5 C 400.59,132.239 400.59,135.572 399.5,138.5C 398.914,138.291 398.414,137.957 398,137.5C 397.481,138.516 396.647,139.182 395.5,139.5C 391.502,136.755 387.836,137.089 384.5,140.5C 381.19,142.146 378.523,144.48 376.5,147.5C 376.286,145.856 376.62,144.356 377.5,143C 375.446,141.318 375.779,139.651 378.5,138C 375.957,135.898 373.957,136.398 372.5,139.5C 368.913,138.463 368.913,136.963 372.5,135C 372.272,134.601 371.938,134.435 371.5,134.5C 373.618,132.067 376.284,130.4 379.5,129.5C 386.134,128.503 392.8,128.17 399.5,128.5 Z"/></g>
<g><path style="opacity:1" fill="#1a69b4" d="M 426.5,159.5 C 426.502,153.477 426.835,147.477 427.5,141.5C 430.842,140.988 432.676,138.988 433,135.5C 434.396,137.527 436.062,137.86 438,136.5C 438.653,138.564 439.82,140.231 441.5,141.5C 440.624,142.251 439.624,142.751 438.5,143C 438.957,143.414 439.291,143.914 439.5,144.5C 437.907,148.309 437.074,152.309 437,156.5C 434.878,157.22 434.378,158.387 435.5,160C 434.452,163.456 432.119,164.956 428.5,164.5C 428.5,163.5 428.5,162.5 428.5,161.5C 429.5,161.5 430.5,161.5 431.5,161.5C 431.66,159.801 431.494,158.134 431,156.5C 430.092,158.439 428.592,159.439 426.5,159.5 Z"/></g>
<g><path style="opacity:1" fill="#177cbe" d="M 500.5,108.5 C 500.5,115.167 500.5,121.833 500.5,128.5C 519.677,122.178 533.177,128.178 541,146.5C 541.826,157.674 541.659,168.674 540.5,179.5C 540.666,169.161 540.5,158.828 540,148.5C 539.71,146.956 539.044,145.623 538,144.5C 537.824,147.882 537.324,151.215 536.5,154.5C 534.991,150.271 535.324,146.271 537.5,142.5C 537.192,141.692 536.692,141.025 536,140.5C 534.957,144.226 534.457,143.893 534.5,139.5C 533.448,139.649 532.448,139.483 531.5,139C 532.38,137.644 532.714,136.144 532.5,134.5C 530.4,134.523 528.567,133.856 527,132.5C 522.27,135.188 522.77,137.022 528.5,138C 530.365,140.921 530.532,144.088 529,147.5C 528.5,157.828 528.334,168.161 528.5,178.5C 531.713,178.19 534.713,178.523 537.5,179.5C 533.894,179.789 530.394,179.456 527,178.5C 526.667,168.5 526.333,158.5 526,148.5C 519.378,138.418 511.711,137.418 503,145.5C 501.956,147.715 501.29,150.048 501,152.5C 500.184,161.079 500.351,169.579 501.5,178C 500.874,178.75 500.374,179.584 500,180.5C 497.959,179.577 495.792,179.244 493.5,179.5C 493.5,179.167 493.5,178.833 493.5,178.5C 495.167,178.5 496.833,178.5 498.5,178.5C 498.756,170.302 498.423,162.135 497.5,154C 498.344,151.905 499.344,149.905 500.5,148C 497.112,146.678 496.779,144.845 499.5,142.5C 495,141.731 494.5,140.064 498,137.5C 499.585,138.376 500.585,139.709 501,141.5C 503.025,139.142 505.358,137.142 508,135.5C 511.653,138.196 515.82,139.196 520.5,138.5C 521.344,131.582 519.677,130.415 515.5,135C 514.365,135.749 513.365,135.583 512.5,134.5C 513.443,131.891 515.11,129.891 517.5,128.5C 516.833,128.167 516.167,127.833 515.5,127.5C 509.842,128.666 504.176,129.666 498.5,130.5C 500.131,124.824 499.131,119.657 495.5,115C 496.563,113.812 497.897,113.312 499.5,113.5C 499.216,111.585 499.549,109.919 500.5,108.5 Z"/></g>
<g><path style="opacity:1" fill="#254c9b" d="M 331.5,128.5 C 331.611,130.648 330.944,130.981 329.5,129.5C 326.561,130.207 326.061,131.54 328,133.5C 329.194,132.57 330.527,131.903 332,131.5C 333.333,132.833 334.667,132.833 336,131.5C 337.257,131.85 337.591,132.517 337,133.5C 334.376,135.035 331.543,136.202 328.5,137C 329.167,137.333 329.833,137.667 330.5,138C 327.635,138.183 324.969,138.683 322.5,139.5C 322.5,139.833 322.5,140.167 322.5,140.5C 319.173,141.827 316.84,144.16 315.5,147.5C 314.957,147.56 314.624,147.893 314.5,148.5C 320.373,150.069 326.373,150.902 332.5,151C 334.246,151.471 335.913,152.138 337.5,153C 336.874,153.75 336.374,154.584 336,155.5C 335.107,154.919 334.107,154.585 333,154.5C 327.238,154.874 321.738,155.874 316.5,157.5C 315.833,157.5 315.5,157.833 315.5,158.5C 317.337,163.591 321.004,165.924 326.5,165.5C 327.609,166.29 328.942,166.79 330.5,167C 329.062,167.219 327.729,167.719 326.5,168.5C 329.366,169.208 332.2,169.875 335,170.5C 336.697,169.636 337.863,168.303 338.5,166.5C 341.546,165.15 343.88,165.983 345.5,169C 341.541,168.791 339.874,170.625 340.5,174.5C 338.821,174.285 337.821,174.952 337.5,176.5C 336.2,175.892 334.867,175.225 333.5,174.5C 331.548,175.208 329.881,176.375 328.5,178C 327.333,178.167 326.167,178.333 325,178.5C 322.51,177.664 320.01,176.998 317.5,176.5C 317.5,174.167 317.5,171.833 317.5,169.5C 314.547,169.15 312.213,170.15 310.5,172.5C 308.265,171.772 306.432,170.439 305,168.5C 300.877,162.045 299.544,155.045 301,147.5C 302.47,144.236 303.637,140.903 304.5,137.5C 306.239,134.757 308.573,132.757 311.5,131.5C 314.127,130.895 316.793,130.395 319.5,130C 319.167,129.667 318.833,129.333 318.5,129C 322.821,128.501 327.154,128.334 331.5,128.5 Z"/></g>
<g><path style="opacity:1" fill="#2674a5" d="M 498.5,107.5 C 495.038,108.482 491.371,108.815 487.5,108.5C 487.5,131.833 487.5,155.167 487.5,178.5C 489.5,178.5 491.5,178.5 493.5,178.5C 493.5,178.833 493.5,179.167 493.5,179.5C 491.167,179.5 488.833,179.5 486.5,179.5C 486.5,155.5 486.5,131.5 486.5,107.5C 490.5,107.5 494.5,107.5 498.5,107.5 Z"/></g>
<g><path style="opacity:1" fill="#2a9cc7" d="M 141.5,97.5 C 151.59,101.459 156.257,108.959 155.5,120C 155.029,133.088 150.362,144.254 141.5,153.5C 140.292,152.766 138.959,152.433 137.5,152.5C 147.178,144.025 152.178,133.192 152.5,120C 153.112,109.821 148.778,102.987 139.5,99.5C 140.833,99.5 141.5,98.8333 141.5,97.5 Z"/></g>
<g><path style="opacity:1" fill="#0b8ed3" d="M 582.5,128.5 C 586.182,128.335 589.848,128.501 593.5,129C 590.015,129.493 589.515,130.993 592,133.5C 594.672,134.867 597.505,135.867 600.5,136.5C 600.137,137.183 599.804,137.85 599.5,138.5C 596.227,139.47 593.227,140.97 590.5,143C 591,143.167 591.5,143.333 592,143.5C 593.3,142.293 594.8,141.626 596.5,141.5C 594.669,153.715 594.002,166.049 594.5,178.5C 591.5,178.5 588.5,178.5 585.5,178.5C 584.5,178.5 583.5,178.5 582.5,178.5C 582.5,161.833 582.5,145.167 582.5,128.5 Z"/></g>
<g><path style="opacity:1" fill="#3b4f8a" d="M 250.5,125.5 C 252.322,142.471 253.156,159.804 253,177.5C 255.719,178.444 258.552,178.777 261.5,178.5C 263.099,178.232 264.432,178.566 265.5,179.5C 260.455,179.609 255.622,179.609 251,179.5C 250.5,161.503 250.333,143.503 250.5,125.5 Z"/></g>
<g><path style="opacity:1" fill="#2059a7" d="M 371.5,134.5 C 371.938,134.435 372.272,134.601 372.5,135C 368.913,136.963 368.913,138.463 372.5,139.5C 373.957,136.398 375.957,135.898 378.5,138C 375.779,139.651 375.446,141.318 377.5,143C 376.62,144.356 376.286,145.856 376.5,147.5C 376.244,151.269 376.577,154.936 377.5,158.5C 376.359,160.667 375.359,163 374.5,165.5C 373.137,166.879 372.137,166.713 371.5,165C 372.289,163.374 373.289,161.874 374.5,160.5C 373.183,154.303 373.183,148.136 374.5,142C 372.585,139.919 370.919,140.085 369.5,142.5C 372.014,144.799 372.014,147.132 369.5,149.5C 371.389,152.221 371.555,154.887 370,157.5C 369.047,155.408 367.714,155.075 366,156.5C 365.506,158.134 365.34,159.801 365.5,161.5C 370.7,162.827 370.7,164.493 365.5,166.5C 364.028,161.856 363.028,157.022 362.5,152C 363.864,147.898 364.864,143.731 365.5,139.5C 367.5,137.833 369.5,136.167 371.5,134.5 Z"/></g>
<g><path style="opacity:1" fill="#0896da" d="M 582.5,128.5 C 591.278,129.142 600.445,129.142 610,128.5C 612.086,129.418 614.253,130.085 616.5,130.5C 618.012,132.317 620.012,133.317 622.5,133.5C 627.222,129.178 632.889,127.178 639.5,127.5C 642.001,135.453 639.001,139.12 630.5,138.5C 630.5,139.5 630.5,140.5 630.5,141.5C 629.022,141.238 627.689,141.571 626.5,142.5C 626.568,154.38 626.568,166.38 626.5,178.5C 623.5,178.5 620.5,178.5 617.5,178.5C 617.161,167.061 616.161,155.727 614.5,144.5C 615.5,142.409 614.833,140.743 612.5,139.5C 611.833,139.833 611.167,140.167 610.5,140.5C 606.838,138.577 603.171,137.91 599.5,138.5C 599.804,137.85 600.137,137.183 600.5,136.5C 597.505,135.867 594.672,134.867 592,133.5C 589.515,130.993 590.015,129.493 593.5,129C 589.848,128.501 586.182,128.335 582.5,128.5 Z"/></g>
<g><path style="opacity:1" fill="#05a4e7" d="M 681.5,146.5 C 681.5,147.167 681.5,147.833 681.5,148.5C 680.957,148.56 680.624,148.893 680.5,149.5C 681.5,149.833 682.5,150.167 683.5,150.5C 689.134,149.645 694.801,149.312 700.5,149.5C 700.229,151.38 700.896,152.713 702.5,153.5C 703.11,154.391 703.443,155.391 703.5,156.5C 700.313,157.04 697.813,156.04 696,153.5C 691.008,156.478 685.508,157.812 679.5,157.5C 679.157,159.483 679.824,160.817 681.5,161.5C 682.219,163.888 683.885,165.388 686.5,166C 688.333,166.167 690.167,166.333 692,166.5C 699.013,164.582 706.179,163.582 713.5,163.5C 713.5,165.167 713.5,166.833 713.5,168.5C 711.037,172.3 707.704,174.967 703.5,176.5C 700.085,176.261 696.919,176.928 694,178.5C 690.46,178.037 686.96,177.37 683.5,176.5C 682.653,174.939 682.986,173.439 684.5,172C 680.821,171.049 678.155,168.883 676.5,165.5C 674.02,166.415 673.353,167.915 674.5,170C 673.906,170.464 673.239,170.631 672.5,170.5C 665.582,161.895 663.916,152.228 667.5,141.5C 668.82,140.058 670.486,139.392 672.5,139.5C 672.351,138.448 672.517,137.448 673,136.5C 675.711,137.565 678.545,139.232 681.5,141.5C 681.11,143.126 681.11,144.792 681.5,146.5 Z"/></g>
<g><path style="opacity:1" fill="#15a7dc" d="M 695.5,140.5 C 702.658,141.483 705.491,145.483 704,152.5C 703.617,153.056 703.117,153.389 702.5,153.5C 700.896,152.713 700.229,151.38 700.5,149.5C 694.801,149.312 689.134,149.645 683.5,150.5C 682.5,150.167 681.5,149.833 680.5,149.5C 680.624,148.893 680.957,148.56 681.5,148.5C 688.5,147.167 695.5,147.167 702.5,148.5C 701.6,144.599 699.267,141.932 695.5,140.5 Z"/></g>
<g><path style="opacity:0.995" fill="#607ddf" d="M 43.5,63.5 C 43.3284,64.4916 43.6618,65.1583 44.5,65.5C 44.5,89.5 44.5,113.5 44.5,137.5C 43.8333,165.833 43.1667,194.167 42.5,222.5C 41.3349,170.335 41.1683,118.002 42,65.5C 42.2784,64.5842 42.7784,63.9175 43.5,63.5 Z"/></g>
<g><path style="opacity:1" fill="#23529c" d="M 331.5,128.5 C 335.155,129.83 338.821,131.163 342.5,132.5C 348.04,135.882 351.373,140.882 352.5,147.5C 351.448,147.649 350.448,147.483 349.5,147C 349.273,145.865 348.94,144.698 348.5,143.5C 347.019,144.48 345.685,145.647 344.5,147C 346.35,149.018 348.35,150.851 350.5,152.5C 349.667,152.833 348.833,153.167 348,153.5C 344.336,152.707 340.836,151.874 337.5,151C 339.455,151.953 341.122,153.287 342.5,155C 344.708,155.191 346.708,155.691 348.5,156.5C 337.846,157.15 327.179,157.484 316.5,157.5C 321.738,155.874 327.238,154.874 333,154.5C 334.107,154.585 335.107,154.919 336,155.5C 336.374,154.584 336.874,153.75 337.5,153C 335.913,152.138 334.246,151.471 332.5,151C 326.373,150.902 320.373,150.069 314.5,148.5C 314.624,147.893 314.957,147.56 315.5,147.5C 322.735,148.811 330.068,148.811 337.5,147.5C 338.815,146.789 338.815,145.289 337.5,143C 332.947,139.992 327.947,138.826 322.5,139.5C 324.969,138.683 327.635,138.183 330.5,138C 329.833,137.667 329.167,137.333 328.5,137C 331.543,136.202 334.376,135.035 337,133.5C 337.591,132.517 337.257,131.85 336,131.5C 334.667,132.833 333.333,132.833 332,131.5C 330.527,131.903 329.194,132.57 328,133.5C 326.061,131.54 326.561,130.207 329.5,129.5C 330.944,130.981 331.611,130.648 331.5,128.5 Z"/></g>
<g><path style="opacity:1" fill="#1477c0" d="M 498.5,107.5 C 499.492,107.328 500.158,107.662 500.5,108.5C 499.549,109.919 499.216,111.585 499.5,113.5C 497.897,113.312 496.563,113.812 495.5,115C 499.131,119.657 500.131,124.824 498.5,130.5C 504.176,129.666 509.842,128.666 515.5,127.5C 516.167,127.833 516.833,128.167 517.5,128.5C 515.11,129.891 513.443,131.891 512.5,134.5C 513.365,135.583 514.365,135.749 515.5,135C 519.677,130.415 521.344,131.582 520.5,138.5C 515.82,139.196 511.653,138.196 508,135.5C 505.358,137.142 503.025,139.142 501,141.5C 500.585,139.709 499.585,138.376 498,137.5C 494.5,140.064 495,141.731 499.5,142.5C 496.779,144.845 497.112,146.678 500.5,148C 499.344,149.905 498.344,151.905 497.5,154C 498.423,162.135 498.756,170.302 498.5,178.5C 496.833,178.5 495.167,178.5 493.5,178.5C 491.5,178.5 489.5,178.5 487.5,178.5C 487.5,155.167 487.5,131.833 487.5,108.5C 491.371,108.815 495.038,108.482 498.5,107.5 Z"/></g>
<g><path style="opacity:1" fill="#2b91c3" d="M 616.5,130.5 C 614.253,130.085 612.086,129.418 610,128.5C 600.445,129.142 591.278,129.142 582.5,128.5C 582.5,145.167 582.5,161.833 582.5,178.5C 583.5,178.5 584.5,178.5 585.5,178.5C 584.432,179.434 583.099,179.768 581.5,179.5C 581.5,161.833 581.5,144.167 581.5,126.5C 586.876,126.265 592.209,126.598 597.5,127.5C 600.407,126.99 603.241,126.323 606,125.5C 608.802,126.33 611.635,127.163 614.5,128C 615.381,128.708 616.047,129.542 616.5,130.5 Z"/></g>
<g><path style="opacity:1" fill="#2253a6" d="M 352.5,147.5 C 352.833,148.167 353.167,148.833 353.5,149.5C 352.532,151.607 352.198,153.941 352.5,156.5C 351.167,156.5 349.833,156.5 348.5,156.5C 346.708,155.691 344.708,155.191 342.5,155C 341.122,153.287 339.455,151.953 337.5,151C 340.836,151.874 344.336,152.707 348,153.5C 348.833,153.167 349.667,152.833 350.5,152.5C 348.35,150.851 346.35,149.018 344.5,147C 345.685,145.647 347.019,144.48 348.5,143.5C 348.94,144.698 349.273,145.865 349.5,147C 350.448,147.483 351.448,147.649 352.5,147.5 Z"/></g>
<g><path style="opacity:1" fill="#245c96" d="M 103.5,149.5 C 105.873,150.839 108.207,152.172 110.5,153.5C 119.368,153.754 127.368,154.42 134.5,155.5C 140.167,155.5 145.833,155.5 151.5,155.5C 134.264,156.824 116.931,156.824 99.5,155.5C 92.6457,155.824 85.979,155.491 79.5,154.5C 87.3228,153.671 95.3228,153.171 103.5,153C 102.944,152.617 102.611,152.117 102.5,151.5C 103.338,151.158 103.672,150.492 103.5,149.5 Z"/></g>
<g><path style="opacity:1" fill="#2173ac" d="M 134.5,153.5 C 135.239,153.369 135.906,153.536 136.5,154C 135.584,154.278 134.918,154.778 134.5,155.5C 127.368,154.42 119.368,153.754 110.5,153.5C 114.791,153.625 118.957,152.958 123,151.5C 126.68,153.049 130.513,153.716 134.5,153.5 Z"/></g>
<g><path style="opacity:1" fill="#2571a5" d="M 479.5,157.5 C 474.93,156.559 470.263,156.226 465.5,156.5C 466.109,159.878 464.776,161.878 461.5,162.5C 462.487,160.527 463.487,158.527 464.5,156.5C 467,156.167 469.5,155.833 472,155.5C 474.929,155.525 477.429,156.191 479.5,157.5 Z"/></g>
<g><path style="opacity:1" fill="#1992c8" d="M 630.5,141.5 C 629.406,143.359 628.573,145.359 628,147.5C 627.667,158.167 627.333,168.833 627,179.5C 623.606,180.456 620.106,180.789 616.5,180.5C 616.833,179.833 617.167,179.167 617.5,178.5C 620.5,178.5 623.5,178.5 626.5,178.5C 626.568,166.38 626.568,154.38 626.5,142.5C 627.689,141.571 629.022,141.238 630.5,141.5 Z"/></g>
<g><path style="opacity:1" fill="#18a5d8" d="M 717.5,145.5 C 719.514,149.468 719.848,153.635 718.5,158C 706.171,158.5 693.838,158.667 681.5,158.5C 681.5,159.5 681.5,160.5 681.5,161.5C 679.824,160.817 679.157,159.483 679.5,157.5C 685.508,157.812 691.008,156.478 696,153.5C 697.813,156.04 700.313,157.04 703.5,156.5C 708.5,156.5 713.5,156.5 718.5,156.5C 718.058,152.846 717.724,149.179 717.5,145.5 Z"/></g>
<g><path style="opacity:1" fill="#285289" d="M 353.5,149.5 C 353.5,152.5 353.5,155.5 353.5,158.5C 340.833,158.5 328.167,158.5 315.5,158.5C 315.5,157.833 315.833,157.5 316.5,157.5C 327.179,157.484 337.846,157.15 348.5,156.5C 349.833,156.5 351.167,156.5 352.5,156.5C 352.198,153.941 352.532,151.607 353.5,149.5 Z"/></g>
<g><path style="opacity:1" fill="#2d6ca1" d="M 427.5,141.5 C 426.835,147.477 426.502,153.477 426.5,159.5C 427.301,161.042 427.634,162.708 427.5,164.5C 425.107,161.149 424.107,157.316 424.5,153C 424.107,148.684 425.107,144.851 427.5,141.5 Z"/></g>
<g><path style="opacity:1" fill="#3c9ac0" d="M 614.5,150.5 C 614.843,160.045 615.843,169.378 617.5,178.5C 617.167,179.167 616.833,179.833 616.5,180.5C 615.883,180.389 615.383,180.056 615,179.5C 614.5,169.839 614.334,160.172 614.5,150.5 Z"/></g>
<g><path style="opacity:1" fill="#1c90c8" d="M 599.5,138.5 C 603.171,137.91 606.838,138.577 610.5,140.5C 611.167,140.167 611.833,139.833 612.5,139.5C 614.833,140.743 615.5,142.409 614.5,144.5C 616.161,155.727 617.161,167.061 617.5,178.5C 615.843,169.378 614.843,160.045 614.5,150.5C 613.678,142.51 609.345,139.344 601.5,141C 599.383,142.731 597.883,144.898 597,147.5C 596.832,158.182 596.332,168.849 595.5,179.5C 590.755,179.872 586.089,179.872 581.5,179.5C 583.099,179.768 584.432,179.434 585.5,178.5C 588.5,178.5 591.5,178.5 594.5,178.5C 594.002,166.049 594.669,153.715 596.5,141.5C 594.8,141.626 593.3,142.293 592,143.5C 591.5,143.333 591,143.167 590.5,143C 593.227,140.97 596.227,139.47 599.5,138.5 Z"/></g>
<g><path style="opacity:1" fill="#1f76b0" d="M 105.5,159.5 C 118.167,159.5 130.833,159.5 143.5,159.5C 144.167,160.167 144.833,160.833 145.5,161.5C 132.167,161.5 118.833,161.5 105.5,161.5C 105.5,160.833 105.5,160.167 105.5,159.5 Z"/></g>
<g><path style="opacity:0.549" fill="#38669d" d="M 365.5,139.5 C 364.864,143.731 363.864,147.898 362.5,152C 363.028,157.022 364.028,161.856 365.5,166.5C 362.494,162.635 361.16,158.135 361.5,153C 361.16,147.865 362.494,143.365 365.5,139.5 Z"/></g>
<g><path style="opacity:1" fill="#32528d" d="M 304.5,137.5 C 303.637,140.903 302.47,144.236 301,147.5C 299.544,155.045 300.877,162.045 305,168.5C 306.432,170.439 308.265,171.772 310.5,172.5C 311.11,173.391 311.443,174.391 311.5,175.5C 299.567,167.338 296.067,156.338 301,142.5C 302.03,140.654 303.196,138.987 304.5,137.5 Z"/></g>
<g><path style="opacity:1" fill="#1c6ab0" d="M 439.5,129.5 C 438.71,130.794 437.71,131.961 436.5,133C 439.053,134.656 441.719,134.823 444.5,133.5C 444.703,135.39 444.037,136.89 442.5,138C 445.66,139.66 448.993,139.826 452.5,138.5C 454.355,138.34 455.688,139.007 456.5,140.5C 444.015,139.484 438.515,145.151 440,157.5C 443.993,165.208 450.16,167.542 458.5,164.5C 458.389,165.117 458.056,165.617 457.5,166C 454.167,166.333 450.833,166.667 447.5,167C 448.167,167.333 448.833,167.667 449.5,168C 448.039,169.351 446.706,170.851 445.5,172.5C 447.005,173.842 447.672,175.508 447.5,177.5C 450.55,178.077 452.55,176.91 453.5,174C 455.81,173.503 458.143,173.337 460.5,173.5C 460.5,174.5 460.5,175.5 460.5,176.5C 462.737,175.551 465.071,174.884 467.5,174.5C 465.035,176.837 462.035,178.337 458.5,179C 444.499,181.52 434.165,176.687 427.5,164.5C 427.634,162.708 427.301,161.042 426.5,159.5C 428.592,159.439 430.092,158.439 431,156.5C 431.494,158.134 431.66,159.801 431.5,161.5C 430.5,161.5 429.5,161.5 428.5,161.5C 428.5,162.5 428.5,163.5 428.5,164.5C 432.119,164.956 434.452,163.456 435.5,160C 434.378,158.387 434.878,157.22 437,156.5C 437.074,152.309 437.907,148.309 439.5,144.5C 439.291,143.914 438.957,143.414 438.5,143C 439.624,142.751 440.624,142.251 441.5,141.5C 439.82,140.231 438.653,138.564 438,136.5C 436.062,137.86 434.396,137.527 433,135.5C 432.676,138.988 430.842,140.988 427.5,141.5C 429.833,135.833 433.833,131.833 439.5,129.5 Z"/></g>
<g><path style="opacity:1" fill="#2c9dc9" d="M 667.5,141.5 C 663.916,152.228 665.582,161.895 672.5,170.5C 672.5,170.833 672.5,171.167 672.5,171.5C 668.676,168.473 666.176,164.473 665,159.5C 663.86,153.091 664.694,147.091 667.5,141.5 Z"/></g>
<g><path style="opacity:0.996" fill="#2d477a" d="M 121.5,164.5 C 120.833,165.167 120.167,165.833 119.5,166.5C 115.298,166.183 111.298,166.517 107.5,167.5C 106.133,165.907 106.466,164.574 108.5,163.5C 112.765,164.439 117.098,164.772 121.5,164.5 Z"/></g>
<g><path style="opacity:1" fill="#275b90" d="M 121.5,164.5 C 126.167,164.5 130.833,164.5 135.5,164.5C 135.082,165.222 134.416,165.722 133.5,166C 128.845,166.499 124.179,166.666 119.5,166.5C 120.167,165.833 120.833,165.167 121.5,164.5 Z"/></g>
<g><path style="opacity:1" fill="#327aab" d="M 135.5,164.5 C 142.5,164.5 149.5,164.5 156.5,164.5C 156.389,165.117 156.056,165.617 155.5,166C 148.321,166.171 141.321,166.671 134.5,167.5C 125.5,167.5 116.5,167.5 107.5,167.5C 111.298,166.517 115.298,166.183 119.5,166.5C 124.179,166.666 128.845,166.499 133.5,166C 134.416,165.722 135.082,165.222 135.5,164.5 Z"/></g>
<g><path style="opacity:1" fill="#255298" d="M 337.5,176.5 C 337.821,174.952 338.821,174.285 340.5,174.5C 339.874,170.625 341.541,168.791 345.5,169C 343.88,165.983 341.546,165.15 338.5,166.5C 337.863,168.303 336.697,169.636 335,170.5C 332.2,169.875 329.366,169.208 326.5,168.5C 327.729,167.719 329.062,167.219 330.5,167C 328.942,166.79 327.609,166.29 326.5,165.5C 329.928,165.453 332.928,164.287 335.5,162C 340.398,162.39 345.232,162.224 350,161.5C 350.692,162.025 351.192,162.692 351.5,163.5C 348.727,169.942 344.06,174.275 337.5,176.5 Z"/></g>
<g><path style="opacity:1" fill="#1ca4d7" d="M 681.5,161.5 C 688.398,166.773 695.398,166.773 702.5,161.5C 706.653,162.803 710.82,162.803 715,161.5C 716.059,161.63 716.892,162.13 717.5,163C 716.512,165.167 715.179,167 713.5,168.5C 713.5,166.833 713.5,165.167 713.5,163.5C 706.179,163.582 699.013,164.582 692,166.5C 690.167,166.333 688.333,166.167 686.5,166C 683.885,165.388 682.219,163.888 681.5,161.5 Z"/></g>
<g><path style="opacity:1" fill="#1f5ea8" d="M 377.5,158.5 C 380.833,164.944 386.167,167.278 393.5,165.5C 397.722,165.141 400.889,163.141 403,159.5C 403.494,157.866 403.66,156.199 403.5,154.5C 406.765,157.618 407.765,161.284 406.5,165.5C 404.857,165.48 403.524,166.147 402.5,167.5C 401.516,170.428 401.183,173.428 401.5,176.5C 399.799,176.966 398.299,176.966 397,176.5C 396.536,177.094 396.369,177.761 396.5,178.5C 383.266,181.978 372.932,177.978 365.5,166.5C 370.7,164.493 370.7,162.827 365.5,161.5C 365.34,159.801 365.506,158.134 366,156.5C 367.714,155.075 369.047,155.408 370,157.5C 371.555,154.887 371.389,152.221 369.5,149.5C 372.014,147.132 372.014,144.799 369.5,142.5C 370.919,140.085 372.585,139.919 374.5,142C 373.183,148.136 373.183,154.303 374.5,160.5C 373.289,161.874 372.289,163.374 371.5,165C 372.137,166.713 373.137,166.879 374.5,165.5C 375.359,163 376.359,160.667 377.5,158.5 Z"/></g>
<g><path style="opacity:1" fill="#196fb9" d="M 479.5,157.5 C 477.777,164.872 473.777,170.538 467.5,174.5C 465.071,174.884 462.737,175.551 460.5,176.5C 460.5,175.5 460.5,174.5 460.5,173.5C 458.143,173.337 455.81,173.503 453.5,174C 452.55,176.91 450.55,178.077 447.5,177.5C 447.672,175.508 447.005,173.842 445.5,172.5C 446.706,170.851 448.039,169.351 449.5,168C 448.833,167.667 448.167,167.333 447.5,167C 450.833,166.667 454.167,166.333 457.5,166C 458.056,165.617 458.389,165.117 458.5,164.5C 458.973,163.094 459.973,162.427 461.5,162.5C 464.776,161.878 466.109,159.878 465.5,156.5C 470.263,156.226 474.93,156.559 479.5,157.5 Z"/></g>
<g><path style="opacity:1" fill="#2c4377" d="M 79.5,154.5 C 85.979,155.491 92.6457,155.824 99.5,155.5C 93.0126,156.328 86.346,156.828 79.5,157C 71.7704,159.959 68.9371,165.459 71,173.5C 72.6941,176.358 74.8607,178.691 77.5,180.5C 76.5,180.5 75.5,180.5 74.5,180.5C 74.1667,180.5 73.8333,180.5 73.5,180.5C 65.2826,172.198 65.6159,164.031 74.5,156C 76.1545,155.392 77.8211,154.892 79.5,154.5 Z"/></g>
<g><path style="opacity:0.114" fill="#2f5a83" d="M 103.5,169.5 C 113.015,169.173 122.348,169.506 131.5,170.5C 130.167,170.5 128.833,170.5 127.5,170.5C 121.158,170.334 114.825,170.5 108.5,171C 109.056,171.383 109.389,171.883 109.5,172.5C 106.693,173.657 104.026,173.657 101.5,172.5C 101.389,171.883 101.056,171.383 100.5,171C 101.737,170.768 102.737,170.268 103.5,169.5 Z"/></g>
<g><path style="opacity:1" fill="#2b4a85" d="M 105.5,159.5 C 105.5,160.167 105.5,160.833 105.5,161.5C 100.25,162 95.0832,162 90,161.5C 86.3234,161.628 82.8234,162.461 79.5,164C 76.2692,169.03 77.2692,172.864 82.5,175.5C 82.6716,176.492 82.3382,177.158 81.5,177.5C 76.2926,175.766 74.126,172.1 75,166.5C 75.8333,163 78,160.833 81.5,160C 89.4931,159.5 97.4931,159.334 105.5,159.5 Z"/></g>
<g><path style="opacity:1" fill="#12a3de" d="M 703.5,176.5 C 694.044,180.84 684.711,180.34 675.5,175C 674.29,173.961 673.29,172.794 672.5,171.5C 672.5,171.167 672.5,170.833 672.5,170.5C 673.239,170.631 673.906,170.464 674.5,170C 673.353,167.915 674.02,166.415 676.5,165.5C 678.155,168.883 680.821,171.049 684.5,172C 682.986,173.439 682.653,174.939 683.5,176.5C 686.96,177.37 690.46,178.037 694,178.5C 696.919,176.928 700.085,176.261 703.5,176.5 Z"/></g>
<g><path style="opacity:1" fill="#2c4775" d="M 103.5,169.5 C 102.737,170.268 101.737,170.768 100.5,171C 101.056,171.383 101.389,171.883 101.5,172.5C 97.5695,172.597 93.9028,172.931 90.5,173.5C 89.354,172.855 88.354,172.022 87.5,171C 92.7081,169.603 98.0414,169.103 103.5,169.5 Z"/></g>
<g><path style="opacity:0.999" fill="#27699c" d="M 127.5,170.5 C 127.5,171.167 127.5,171.833 127.5,172.5C 121.5,172.5 115.5,172.5 109.5,172.5C 109.389,171.883 109.056,171.383 108.5,171C 114.825,170.5 121.158,170.334 127.5,170.5 Z"/></g>
<g><path style="opacity:0.88" fill="#218ab8" d="M 127.5,172.5 C 127.5,171.833 127.5,171.167 127.5,170.5C 128.833,170.5 130.167,170.5 131.5,170.5C 138.422,170.812 145.256,170.479 152,169.5C 152.925,170.047 153.758,170.713 154.5,171.5C 145.525,172.498 136.525,172.832 127.5,172.5 Z"/></g>
<g><path style="opacity:0.997" fill="#2c5489" d="M 82.5,175.5 C 88.1667,175.5 93.8333,175.5 99.5,175.5C 103.298,176.483 107.298,176.817 111.5,176.5C 105.833,177.167 100.167,177.833 94.5,178.5C 89.9677,178.818 85.6344,178.485 81.5,177.5C 82.3382,177.158 82.6716,176.492 82.5,175.5 Z"/></g>
<g><path style="opacity:1" fill="#2d7eab" d="M 99.5,175.5 C 119.651,175.608 139.651,175.608 159.5,175.5C 156.754,176.251 154.087,177.251 151.5,178.5C 144.5,178.5 137.5,178.5 130.5,178.5C 124.426,176.752 118.093,176.085 111.5,176.5C 107.298,176.817 103.298,176.483 99.5,175.5 Z"/></g>
<g><path style="opacity:1" fill="#264f94" d="M 337.5,176.5 C 333.931,178.726 329.931,179.726 325.5,179.5C 320.335,179.552 315.668,178.219 311.5,175.5C 311.443,174.391 311.11,173.391 310.5,172.5C 312.213,170.15 314.547,169.15 317.5,169.5C 317.5,171.833 317.5,174.167 317.5,176.5C 320.01,176.998 322.51,177.664 325,178.5C 326.167,178.333 327.333,178.167 328.5,178C 329.881,176.375 331.548,175.208 333.5,174.5C 334.867,175.225 336.2,175.892 337.5,176.5 Z"/></g>
<g><path style="opacity:0.012" fill="#29648f" d="M 111.5,176.5 C 118.093,176.085 124.426,176.752 130.5,178.5C 118.763,179.49 106.763,179.49 94.5,178.5C 100.167,177.833 105.833,177.167 111.5,176.5 Z"/></g>
<g><path style="opacity:0.995" fill="#4c679b" d="M 73.5,180.5 C 73.8333,180.5 74.1667,180.5 74.5,180.5C 69.9443,182.442 64.9443,183.108 59.5,182.5C 64.1667,181.833 68.8333,181.167 73.5,180.5 Z"/></g>
<g><path style="opacity:1" fill="#1e639e" d="M 84.5,181.5 C 96.1667,181.5 107.833,181.5 119.5,181.5C 127.464,182.831 135.464,183.831 143.5,184.5C 130.833,184.5 118.167,184.5 105.5,184.5C 98.2741,184.151 91.2741,183.151 84.5,181.5 Z"/></g>
<g><path style="opacity:1" fill="#1a81b7" d="M 119.5,181.5 C 134.167,181.5 148.833,181.5 163.5,181.5C 163.389,182.117 163.056,182.617 162.5,183C 166.688,183.176 170.688,183.676 174.5,184.5C 164.167,184.5 153.833,184.5 143.5,184.5C 135.464,183.831 127.464,182.831 119.5,181.5 Z"/></g>
<g><path style="opacity:1" fill="#1e7ab2" d="M 111.5,187.5 C 127.5,187.5 143.5,187.5 159.5,187.5C 159.611,188.117 159.944,188.617 160.5,189C 149.992,189.17 139.659,189.67 129.5,190.5C 123.833,190.5 118.167,190.5 112.5,190.5C 113.263,189.732 114.263,189.232 115.5,189C 113.942,188.79 112.609,188.29 111.5,187.5 Z"/></g>
<g><path style="opacity:1" fill="#235c92" d="M 86.5,187.5 C 94.8333,187.5 103.167,187.5 111.5,187.5C 112.609,188.29 113.942,188.79 115.5,189C 114.263,189.232 113.263,189.732 112.5,190.5C 104.833,190.5 97.1667,190.5 89.5,190.5C 88.6935,189.272 87.6935,188.272 86.5,187.5 Z"/></g>
<g><path style="opacity:1" fill="#27427d" d="M 74.5,180.5 C 75.5,180.5 76.5,180.5 77.5,180.5C 79.7638,181.219 82.0971,181.552 84.5,181.5C 91.2741,183.151 98.2741,184.151 105.5,184.5C 90.1667,184.5 74.8333,184.5 59.5,184.5C 59.5,185.5 59.5,186.5 59.5,187.5C 68.5,187.5 77.5,187.5 86.5,187.5C 87.6935,188.272 88.6935,189.272 89.5,190.5C 80.8078,190.169 72.1411,190.502 63.5,191.5C 63.7093,192.086 64.0426,192.586 64.5,193C 69.4889,193.499 74.4889,193.666 79.5,193.5C 79.5,194.167 79.5,194.833 79.5,195.5C 74.8215,195.334 70.1548,195.501 65.5,196C 64.7728,198.124 64.1062,200.291 63.5,202.5C 64.3202,204.111 65.6536,204.778 67.5,204.5C 68.8734,204.343 70.2068,204.51 71.5,205C 70.944,205.383 70.6107,205.883 70.5,206.5C 67.1501,206.335 63.8168,206.502 60.5,207C 60.0426,207.414 59.7093,207.914 59.5,208.5C 68.1411,209.498 76.8078,209.831 85.5,209.5C 77.8853,210.928 70.2186,211.928 62.5,212.5C 59.1352,213.036 57.1352,211.703 56.5,208.5C 57.7669,206.056 59.2669,203.723 61,201.5C 61.6667,198.5 61.6667,195.5 61,192.5C 58.1535,190.042 56.8201,187.042 57,183.5C 57.6708,182.748 58.5041,182.414 59.5,182.5C 64.9443,183.108 69.9443,182.442 74.5,180.5 Z"/></g>
<g><path style="opacity:1" fill="#2391c1" d="M 159.5,187.5 C 165.842,187.334 172.175,187.5 178.5,188C 187.803,194.103 187.803,200.103 178.5,206C 174.179,206.499 169.846,206.666 165.5,206.5C 157.5,205.833 149.5,205.167 141.5,204.5C 153.876,204.843 166.209,204.343 178.5,203C 183.818,198.951 183.818,194.951 178.5,191C 162.17,190.5 145.837,190.333 129.5,190.5C 139.659,189.67 149.992,189.17 160.5,189C 159.944,188.617 159.611,188.117 159.5,187.5 Z"/></g>
<g><path style="opacity:1" fill="#23659e" d="M 79.5,193.5 C 84.5,193.5 89.5,193.5 94.5,193.5C 94.8333,194.167 95.1667,194.833 95.5,195.5C 90.1667,195.5 84.8333,195.5 79.5,195.5C 79.5,194.833 79.5,194.167 79.5,193.5 Z"/></g>
<g><path style="opacity:1" fill="#1d84bb" d="M 94.5,193.5 C 100.833,193.5 107.167,193.5 113.5,193.5C 113.833,194.167 114.167,194.833 114.5,195.5C 108.167,195.5 101.833,195.5 95.5,195.5C 95.1667,194.833 94.8333,194.167 94.5,193.5 Z"/></g>
<g><path style="opacity:1" fill="#1898cc" d="M 113.5,193.5 C 118.214,193.173 122.88,193.507 127.5,194.5C 123.217,195.492 118.884,195.826 114.5,195.5C 114.167,194.833 113.833,194.167 113.5,193.5 Z"/></g>
<g><path style="opacity:1" fill="#2c4b84" d="M 110.5,199.5 C 113.388,198.99 115.721,199.656 117.5,201.5C 112.786,201.827 108.12,201.493 103.5,200.5C 105.615,198.385 107.949,198.051 110.5,199.5 Z"/></g>
<g><path style="opacity:1" fill="#226198" d="M 110.5,199.5 C 120.628,199.144 130.628,199.144 140.5,199.5C 140.5,200.167 140.5,200.833 140.5,201.5C 132.833,201.5 125.167,201.5 117.5,201.5C 115.721,199.656 113.388,198.99 110.5,199.5 Z"/></g>
<g><path style="opacity:1" fill="#1d8cbe" d="M 140.5,201.5 C 140.5,200.833 140.5,200.167 140.5,199.5C 148.436,199.185 156.436,198.852 164.5,198.5C 165.833,198.667 167.167,198.833 168.5,199C 168.957,199.414 169.291,199.914 169.5,200.5C 159.856,201.498 150.19,201.832 140.5,201.5 Z"/></g>
<g><path style="opacity:1" fill="#219ccc" d="M 134.5,153.5 C 135.209,152.596 136.209,152.263 137.5,152.5C 138.959,152.433 140.292,152.766 141.5,153.5C 153.171,153.333 164.838,153.5 176.5,154C 178.211,155.133 178.711,156.633 178,158.5C 175.938,160.901 174.271,163.567 173,166.5C 172.416,169.257 172.75,171.923 174,174.5C 176.316,176.47 178.149,178.804 179.5,181.5C 193.905,187.74 196.239,196.907 186.5,209C 184.593,210.122 182.593,210.955 180.5,211.5C 178.821,211.715 177.821,211.048 177.5,209.5C 186.608,207.899 190.442,202.566 189,193.5C 186.345,187.085 181.511,184.085 174.5,184.5C 170.688,183.676 166.688,183.176 162.5,183C 163.056,182.617 163.389,182.117 163.5,181.5C 167.167,181.5 170.833,181.5 174.5,181.5C 174.5,180.5 174.5,179.5 174.5,178.5C 166.833,178.5 159.167,178.5 151.5,178.5C 154.087,177.251 156.754,176.251 159.5,175.5C 163.167,175.5 166.833,175.5 170.5,175.5C 169.908,172.873 169.575,170.206 169.5,167.5C 157.833,167.5 146.167,167.5 134.5,167.5C 141.321,166.671 148.321,166.171 155.5,166C 156.056,165.617 156.389,165.117 156.5,164.5C 161.015,164.346 165.348,164.346 169.5,164.5C 170.386,163.675 170.719,162.675 170.5,161.5C 162.167,161.5 153.833,161.5 145.5,161.5C 144.833,160.833 144.167,160.167 143.5,159.5C 153.833,159.5 164.167,159.5 174.5,159.5C 174.5,158.167 174.5,156.833 174.5,155.5C 166.869,156.249 159.202,156.249 151.5,155.5C 145.833,155.5 140.167,155.5 134.5,155.5C 134.918,154.778 135.584,154.278 136.5,154C 135.906,153.536 135.239,153.369 134.5,153.5 Z"/></g>
<g><path style="opacity:0.98" fill="#275888" d="M 67.5,204.5 C 87.5519,203.555 107.552,203.555 127.5,204.5C 131.833,205.167 136.167,205.833 140.5,206.5C 117.175,207.367 93.8412,207.367 70.5,206.5C 70.6107,205.883 70.944,205.383 71.5,205C 70.2068,204.51 68.8734,204.343 67.5,204.5 Z"/></g>
<g><path style="opacity:0.891" fill="#207aa7" d="M 127.5,204.5 C 132.167,204.5 136.833,204.5 141.5,204.5C 149.5,205.167 157.5,205.833 165.5,206.5C 157.288,207.379 148.955,207.379 140.5,206.5C 136.167,205.833 131.833,205.167 127.5,204.5 Z"/></g>
<g><path style="opacity:0.648" fill="#4a65bc" d="M 44.5,137.5 C 44.3334,165.835 44.5,194.169 45,222.5C 45.7172,223.044 46.2172,223.711 46.5,224.5C 45.4937,224.938 45.4937,225.604 46.5,226.5C 44.1667,226.167 42.8333,224.833 42.5,222.5C 43.1667,194.167 43.8333,165.833 44.5,137.5 Z"/></g>
<g><path style="opacity:0.918" fill="#307fb2" d="M 96.5,209.5 C 114.167,209.5 131.833,209.5 149.5,209.5C 157.99,210.33 166.657,210.83 175.5,211C 159.503,211.5 143.503,211.667 127.5,211.5C 116.954,211.792 106.621,211.125 96.5,209.5 Z"/></g>
<g><path style="opacity:0.998" fill="#295887" d="M 85.5,209.5 C 89.1667,209.5 92.8333,209.5 96.5,209.5C 106.621,211.125 116.954,211.792 127.5,211.5C 127.5,211.833 127.5,212.167 127.5,212.5C 105.833,212.5 84.1667,212.5 62.5,212.5C 70.2186,211.928 77.8853,210.928 85.5,209.5 Z"/></g>
<g><path style="opacity:0.995" fill="#2883ac" d="M 149.5,209.5 C 158.833,209.5 168.167,209.5 177.5,209.5C 177.821,211.048 178.821,211.715 180.5,211.5C 163.008,212.497 145.341,212.83 127.5,212.5C 127.5,212.167 127.5,211.833 127.5,211.5C 143.503,211.667 159.503,211.5 175.5,211C 166.657,210.83 157.99,210.33 149.5,209.5 Z"/></g>
<g><path style="opacity:0.998" fill="#5973d6" d="M 206.5,66.5 C 206.986,97.8304 207.32,129.164 207.5,160.5C 207.65,181.895 207.15,203.228 206,224.5C 205.097,225.701 203.931,226.535 202.5,227C 150.332,227.832 98.3317,227.665 46.5,226.5C 45.4937,225.604 45.4937,224.938 46.5,224.5C 98.1677,224.667 149.834,224.5 201.5,224C 203.376,223.082 204.376,221.582 204.5,219.5C 205.167,168.5 205.833,117.5 206.5,66.5 Z"/></g>
</svg>
