<svg width="202" height="143" viewBox="0 0 202 143" fill="none" xmlns="http://www.w3.org/2000/svg">
<path d="M196.813 22.9989C195.733 18.6846 193.534 14.7318 190.438 11.5395C187.341 8.34726 183.457 6.02869 179.178 4.81798C163.542 1 101 1 101 1C101 1 38.4578 1 22.8222 5.1816C18.5429 6.39231 14.6588 8.71088 11.5623 11.9031C8.46586 15.0954 6.26664 19.0482 5.1868 23.3625C2.32526 39.2303 0.925527 55.3273 1.0052 71.4509C0.903195 87.6959 2.30302 103.916 5.1868 119.903C6.37727 124.083 8.62577 127.886 11.715 130.943C14.8043 134 18.6299 136.209 22.8222 137.357C38.4578 141.538 101 141.538 101 141.538C101 141.538 163.542 141.538 179.178 137.357C183.457 136.146 187.341 133.827 190.438 130.635C193.534 127.443 195.733 123.49 196.813 119.176C199.653 103.427 201.052 87.4531 200.995 71.4509C201.097 55.2059 199.697 38.9862 196.813 22.9989Z" stroke="black" stroke-width="2" stroke-linecap="round" stroke-linejoin="round"/>
<path d="M80.5459 101.177L132.816 71.4508L80.5459 41.7251V101.177Z" stroke="black" stroke-width="2" stroke-linecap="round" stroke-linejoin="round"/>
</svg>
